<?xml version="1.0" standalone="no"?>
<!DOCTYPE svg PUBLIC "-//W3C//DTD SVG 1.1//EN" "http://www.w3.org/Graphics/SVG/1.1/DTD/svg11.dtd" >
<svg xmlns="http://www.w3.org/2000/svg">
<metadata></metadata>
<defs>
<font id="formularregular" horiz-adv-x="630" >
<font-face units-per-em="1000" ascent="778" descent="-222" />
<missing-glyph horiz-adv-x="278" />
<glyph unicode="fi" horiz-adv-x="645" d="M351 430h-140v-430h-85v430h-99v74h99v58q0 86 42 125.5t127 39.5h64v-74h-60q-88 0 -88 -94v-55h140v-74zM567 627h-98v100h98v-100zM560 504v-504h-85v504h85z" />
<glyph unicode="fl" horiz-adv-x="640" d="M351 430h-140v-430h-85v430h-99v74h99v58q0 86 42 125.5t127 39.5h64v-74h-60q-88 0 -88 -94v-55h140v-74zM473 727h85v-727h-85v727z" />
<glyph horiz-adv-x="0" />
<glyph horiz-adv-x="0" />
<glyph unicode="&#xd;" horiz-adv-x="278" />
<glyph unicode=" "  horiz-adv-x="278" />
<glyph unicode="&#x09;" horiz-adv-x="278" />
<glyph unicode="&#xa0;" horiz-adv-x="278" />
<glyph unicode="!" horiz-adv-x="314" d="M112 714h90v-295l-17 -230h-57l-16 230v295zM209 0h-104v116h104v-116z" />
<glyph unicode="&#x22;" horiz-adv-x="396" d="M78 460v254h81v-254h-81zM237 460v254h81v-254h-81z" />
<glyph unicode="#" horiz-adv-x="595" d="M70 506h113l31 194h71l-31 -194h136l31 194h71l-31 -194h100v-68h-111l-27 -176h101v-68h-112l-31 -194h-72l31 194h-135l-31 -194h-72l31 194h-100v68h111l28 176h-102v68zM243 438l-27 -176h135l28 176h-136z" />
<glyph unicode="$" d="M386 392q88 -16 136.5 -66.5t48.5 -132.5t-61.5 -141t-167.5 -65v-85h-60v86q-101 7 -161.5 62.5t-72.5 145.5h87q11 -57 50 -90.5t97 -39.5v266l-39 9q-170 36 -170 180q0 77 56.5 133t152.5 60v84h61v-85q87 -7 142 -58.5t66 -129.5h-86q-21 100 -122 110v-233z M365 316l-22 5v-256q62 3 101.5 37.5t39.5 88.5q0 99 -119 125zM160 522q0 -47 26.5 -69.5t95.5 -39.5v223q-54 -2 -88 -33.5t-34 -80.5z" />
<glyph unicode="%" horiz-adv-x="880" d="M267 0h-77l424 700h76zM209 714q77 0 119 -53.5t42 -135.5t-42 -135.5t-119 -53.5t-119 53.5t-42 135.5t42 135.5t119 53.5zM209 399q45 0 68.5 35t23.5 91t-23.5 91t-68.5 35t-68.5 -35t-23.5 -91t23.5 -91t68.5 -35zM670 365q77 0 119 -53.5t42 -135.5t-42 -135.5 t-119 -53.5t-119 53.5t-42 135.5t42 135.5t119 53.5zM670 50q45 0 68.5 35t23.5 91t-23.5 91t-68.5 35t-68.5 -35t-23.5 -91t23.5 -91t68.5 -35z" />
<glyph unicode="&#x26;" horiz-adv-x="719" d="M540 330h84q-14 -109 -72 -193l133 -137h-108l-67 69h-20q-88 -82 -201 -82q-102 0 -166.5 52.5t-64.5 146.5q0 58 28.5 104.5t71.5 75.5l29 19v20l-20 23q-55 63 -55 131t46 111.5t122 43.5q77 0 127.5 -42t50.5 -111q0 -83 -99 -153l-41 -29l177 -183q36 62 45 134z M288 65q93 0 159 69l-195 203l-35 -23q-75 -48 -75 -127q0 -57 42 -89.5t104 -32.5zM241 459l28 -30l41 30q66 47 66 101q0 37 -27.5 59t-66.5 22q-40 0 -64 -21t-24 -61q0 -49 47 -100z" />
<glyph unicode="'" horiz-adv-x="237" d="M78 460v254h81v-254h-81z" />
<glyph unicode="(" horiz-adv-x="294" d="M128 312q0 -242 161 -453h-82q-159 190 -159 453q0 258 152 447h82q-154 -208 -154 -447z" />
<glyph unicode=")" horiz-adv-x="294" d="M166 312q0 239 -154 447h82q152 -189 152 -447q0 -263 -159 -453h-82q161 211 161 453z" />
<glyph unicode="*" horiz-adv-x="475" d="M204 714h67l-5 -169l160 58l21 -65l-162 -48l103 -133l-55 -41l-96 139l-95 -139l-55 41l103 133l-161 48l21 65l159 -58z" />
<glyph unicode="+" horiz-adv-x="682" d="M304 321v217h73v-217h218v-73h-218v-217h-73v217h-217v73h217z" />
<glyph unicode="," horiz-adv-x="258" d="M125 0h-48v116h104v-133l-56 -98h-56l56 98v17z" />
<glyph unicode="-" horiz-adv-x="371" d="M322 240h-273v75h273v-75z" />
<glyph unicode="." horiz-adv-x="258" d="M181 0h-104v116h104v-116z" />
<glyph unicode="/" horiz-adv-x="406" d="M79 -141h-80l302 900h77z" />
<glyph unicode="0" horiz-adv-x="625" d="M312 714q117 0 187.5 -91.5t70.5 -272.5t-70.5 -272t-187.5 -91t-187 91t-70 272q0 182 70 273t187 91zM312 65q85 0 127.5 75.5t42.5 209.5q0 135 -42.5 210.5t-127.5 75.5t-127 -75.5t-42 -210.5q0 -134 42 -209.5t127 -75.5z" />
<glyph unicode="1" horiz-adv-x="504" d="M59 0v78h166v530h-18l-149 -99v92l148 99h107v-622h153v-78h-407z" />
<glyph unicode="2" horiz-adv-x="582" d="M52 507q7 101 71 154t162 53q101 0 164 -55.5t63 -157.5q0 -125 -155 -254l-175 -149v-20h353v-78h-481v98q186 153 261 220q31 27 51 48.5t39 59t19 75.5q0 65 -38 100t-103 35q-60 0 -98 -32.5t-45 -96.5h-88z" />
<glyph unicode="3" horiz-adv-x="569" d="M79 700h409v-96l-175 -154v-19q93 -2 150.5 -58t57.5 -155q0 -107 -69 -169t-178 -62q-105 0 -172.5 59t-72.5 150h88q5 -59 49 -95t108 -36q72 0 115.5 41t43.5 112q0 69 -41 109t-117 40q-37 0 -61 -6v91l171 152v20h-306v76z" />
<glyph unicode="4" horiz-adv-x="612" d="M471 242h96v-78h-96v-164h-86v164h-346v98l311 438h121v-458zM131 242h255v359h-20l-235 -339v-20z" />
<glyph unicode="5" horiz-adv-x="595" d="M316 471q103 0 164.5 -67t61.5 -167q0 -113 -66.5 -181.5t-173.5 -68.5q-111 0 -174.5 58t-69.5 151h87q7 -64 47.5 -97.5t105.5 -33.5q70 0 113 45.5t43 122.5q0 73 -41.5 118.5t-111.5 45.5q-94 0 -139 -66h-88l31 369h400v-76h-329l-16 -203h20q55 50 136 50z" />
<glyph unicode="6" horiz-adv-x="593" d="M325 456q97 0 161 -64t64 -164q0 -104 -64.5 -172.5t-173.5 -68.5q-119 0 -188 82t-69 262q0 170 67.5 276.5t198.5 106.5q86 0 141.5 -46.5t68.5 -120.5h-87q-26 89 -123 89q-82 0 -129.5 -66.5t-51.5 -182.5h20q58 69 165 69zM311 65q67 0 109 41.5t42 117.5 q0 74 -43 114.5t-110 40.5q-66 0 -109 -41t-43 -113q0 -74 43.5 -117t110.5 -43z" />
<glyph unicode="7" horiz-adv-x="548" d="M495 604l-303 -604h-92l304 604v20h-355v76h446v-96z" />
<glyph unicode="8" horiz-adv-x="611" d="M448 359q41 -15 75.5 -59.5t34.5 -108.5q0 -88 -69.5 -146t-183.5 -58t-183.5 58t-69.5 146q0 64 34 108.5t76 59.5v20q-34 16 -61.5 54.5t-27.5 93.5q0 83 65 135t167 52t167 -52t65 -135q0 -54 -28 -93t-61 -55v-20zM305 638q-62 0 -104 -30.5t-42 -84.5t42 -85 t104 -31t104 31t42 85t-42 84.5t-104 30.5zM305 65q76 0 121 36.5t45 97.5t-44.5 96.5t-121.5 35.5t-121.5 -35.5t-44.5 -96.5t45 -97.5t121 -36.5z" />
<glyph unicode="9" horiz-adv-x="593" d="M268 245q-97 0 -161 64t-64 164q0 104 64.5 172.5t173.5 68.5q119 0 188 -82t69 -262q0 -170 -67.5 -276.5t-198.5 -106.5q-86 0 -141.5 46.5t-68.5 120.5h87q26 -89 123 -89q82 0 129.5 66.5t51.5 182.5h-20q-23 -28 -65 -48.5t-100 -20.5zM282 636q-67 0 -109 -41.5 t-42 -117.5q0 -74 43 -114.5t110 -40.5q66 0 109 41t43 113q0 74 -43.5 117t-110.5 43z" />
<glyph unicode=":" horiz-adv-x="258" d="M181 0h-104v116h104v-116zM181 388h-104v116h104v-116z" />
<glyph unicode=";" horiz-adv-x="258" d="M125 0h-48v116h104v-133l-56 -98h-56l56 98v17zM181 388h-104v116h104v-116z" />
<glyph unicode="&#x3c;" horiz-adv-x="678" d="M591 105v-76l-504 221v67l504 221v-76l-388 -169v-20z" />
<glyph unicode="=" horiz-adv-x="680" d="M593 221v-73h-506v73h506zM593 420v-73h-506v73h506z" />
<glyph unicode="&#x3e;" horiz-adv-x="678" d="M87 29v76l387 168v20l-387 169v76l504 -221v-67z" />
<glyph unicode="?" horiz-adv-x="547" d="M267 727q98 0 156.5 -52.5t58.5 -140.5q0 -36 -8 -64t-27.5 -51.5t-36.5 -38t-50 -39.5q-40 -30 -52.5 -50t-12.5 -66v-36h-86v36q0 62 20.5 95.5t75.5 74.5q49 36 70 64t21 75q0 49 -34.5 84t-93.5 35q-129 0 -136 -133h-86q4 96 62.5 151.5t158.5 55.5zM304 0h-104v116 h104v-116z" />
<glyph unicode="@" horiz-adv-x="977" d="M668 -64l25 -52q-117 -74 -264 -74q-173 0 -272.5 104.5t-99.5 276.5q0 216 137 359.5t357 143.5q158 0 264 -92.5t106 -248.5q0 -128 -65.5 -222t-170.5 -94q-73 0 -96 57h-18q-55 -57 -129 -57q-75 0 -118 47t-43 131q0 101 60.5 175.5t155.5 74.5q38 0 66.5 -15 t39.5 -34h18l8 35h71l-42 -254l-1 -10q-1 -10 -2.5 -22t-1.5 -19q0 -52 46 -52q58 0 108 69t50 183q0 131 -83.5 210.5t-234.5 79.5q-171 0 -294.5 -123t-123.5 -309q0 -68 17 -126.5t52.5 -106.5t98.5 -75.5t147 -27.5q121 0 232 68zM456 102q59 0 98 51.5t39 131.5 q0 115 -96 115q-59 0 -97.5 -56t-38.5 -126q0 -52 24 -84t71 -32z" />
<glyph unicode="A" horiz-adv-x="687" d="M573 0l-74 219h-313l-74 -219h-92l247 714h152l248 -714h-94zM322 622l-109 -321h258l-109 321h-40z" />
<glyph unicode="B" horiz-adv-x="701" d="M551 367q45 -21 73 -66.5t28 -99.5q0 -89 -62.5 -145t-179.5 -56h-319v714h311q109 0 168.5 -51.5t59.5 -129.5q0 -103 -79 -146v-20zM181 634v-223h219q139 0 139 114q0 56 -40 82.5t-101 26.5h-217zM404 80q69 0 113 30t44 98q0 65 -43 94.5t-113 29.5h-224v-252h223z " />
<glyph unicode="C" horiz-adv-x="718" d="M573 203h95q-22 -98 -95.5 -157t-187.5 -59q-155 0 -242.5 103t-87.5 267t88 267t243 103q107 0 180 -54t94 -146h-95q-42 118 -179 118q-118 0 -179 -83t-61 -205q0 -123 60.5 -205.5t178.5 -82.5q74 0 122 35.5t66 98.5z" />
<glyph unicode="D" horiz-adv-x="743" d="M358 714q161 0 245.5 -96t84.5 -261t-85 -261t-245 -96h-267v714h267zM358 82q123 0 181 76.5t58 198.5t-58 198.5t-181 76.5h-177v-550h177z" />
<glyph unicode="E" horiz-adv-x="652" d="M181 82h423v-82h-513v714h497v-82h-407v-221h328v-82h-328v-247z" />
<glyph unicode="F" horiz-adv-x="634" d="M590 632h-409v-232h331v-82h-331v-318h-90v714h499v-82z" />
<glyph unicode="G" horiz-adv-x="744" d="M373 379h313v-72q0 -64 -17 -119.5t-51.5 -101.5t-94 -72.5t-137.5 -26.5q-157 0 -244 104t-87 266q0 163 88 266.5t245 103.5q110 0 182.5 -53t93.5 -146h-94q-36 117 -182 117q-119 0 -180.5 -82t-61.5 -206q0 -79 24 -142.5t80 -104.5t137 -41q104 0 155.5 61.5 t51.5 155.5v13h-221v80z" />
<glyph unicode="H" horiz-adv-x="761" d="M580 714h90v-714h-90v326h-399v-326h-90v714h90v-304h399v304z" />
<glyph unicode="I" horiz-adv-x="284" d="M97 714h90v-714h-90v714z" />
<glyph unicode="J" horiz-adv-x="582" d="M268 -13q-99 0 -161 60t-69 168h90q6 -72 43 -109t99 -37t97.5 39.5t35.5 118.5v487h90v-486q0 -113 -60 -177t-165 -64z" />
<glyph unicode="K" horiz-adv-x="718" d="M91 0v714h90v-355l367 355h110l-224 -225l251 -489h-96l-215 412h-20l-173 -166v-246h-90z" />
<glyph unicode="L" horiz-adv-x="623" d="M181 85h401v-85h-491v714h90v-629z" />
<glyph unicode="M" horiz-adv-x="862" d="M91 0v714h148l183 -335h20l180 335h149v-714h-88v612h-20l-186 -339h-92l-186 339h-20v-612h-88z" />
<glyph unicode="N" horiz-adv-x="766" d="M587 714h88v-714h-140l-336 597h-20v-597h-88v714h140l336 -597h20v597z" />
<glyph unicode="O" horiz-adv-x="776" d="M388 727q157 0 245 -104.5t88 -265.5t-88 -265.5t-245 -104.5q-158 0 -245.5 104.5t-87.5 265.5t87.5 265.5t245.5 104.5zM388 69q120 0 181 82.5t61 205.5t-61 205.5t-181 82.5t-181 -82.5t-61 -205.5t61 -205.5t181 -82.5z" />
<glyph unicode="P" horiz-adv-x="687" d="M393 714q115 0 178.5 -56.5t63.5 -156.5q0 -101 -63.5 -158t-178.5 -57h-212v-286h-90v714h302zM378 366q166 0 166 134t-166 134h-197v-268h197z" />
<glyph unicode="Q" horiz-adv-x="776" d="M388 727q157 0 245 -104.5t88 -265.5q0 -168 -91 -270l97 -154h-92l-64 104q-78 -50 -183 -50q-158 0 -245.5 104.5t-87.5 265.5t87.5 265.5t245.5 104.5zM388 69q81 0 138 41l-126 205h87l93 -148q50 76 50 190q0 123 -61 205.5t-181 82.5t-181 -82.5t-61 -205.5 t61 -205.5t181 -82.5z" />
<glyph unicode="R" horiz-adv-x="709" d="M407 714q112 0 173.5 -55t61.5 -153q0 -134 -109 -183l114 -323h-93l-107 302q-28 -3 -58 -3h-208v-299h-90v714h316zM394 379q157 0 157 127q0 63 -37 95.5t-120 32.5h-213v-255h213z" />
<glyph unicode="S" horiz-adv-x="664" d="M291 427q97 -19 135 -27q86 -19 132.5 -66.5t46.5 -134.5q0 -90 -70.5 -151t-199.5 -61q-123 0 -200.5 58.5t-86.5 153.5h91q23 -130 200 -130q77 0 126 34t49 94q0 53 -31.5 81.5t-89.5 40.5q-28 6 -141 29q-173 35 -173 181q0 86 67 142t184 56q109 0 178 -52.5 t81 -140.5h-91q-27 111 -170 111q-68 0 -113 -30t-45 -84q0 -47 32.5 -69.5t88.5 -34.5z" />
<glyph unicode="T" horiz-adv-x="597" d="M578 714v-80h-234v-634h-90v634h-236v80h560z" />
<glyph unicode="U" horiz-adv-x="740" d="M561 714h90v-459q0 -127 -73 -197.5t-208 -70.5t-208 70.5t-73 197.5v459h90v-458q0 -86 49.5 -136.5t141.5 -50.5t141.5 50.5t49.5 136.5v458z" />
<glyph unicode="V" horiz-adv-x="668" d="M248 0l-228 714h95l195 -622h50l195 622h93l-228 -714h-172z" />
<glyph unicode="W" horiz-adv-x="876" d="M377 471h124l132 -370h20l77 613h87l-91 -714h-142l-135 382h-20l-136 -382h-142l-91 714h88l77 -613h20z" />
<glyph unicode="X" horiz-adv-x="647" d="M522 0l-181 324h-35l-186 -324h-98l215 377l-184 337h97l157 -285h35l159 285h96l-186 -333l214 -381h-103z" />
<glyph unicode="Y" horiz-adv-x="643" d="M307 389h28l191 325h97l-257 -441v-273h-90v273l-257 441h97z" />
<glyph unicode="Z" horiz-adv-x="645" d="M582 714v-101l-423 -511v-20h437v-82h-548v102l424 510v20h-397v82h507z" />
<glyph unicode="[" horiz-adv-x="324" d="M266 -141h-189v900h189v-68h-109v-764h109v-68z" />
<glyph unicode="\" horiz-adv-x="406" d="M407 -141h-80l-299 900h77z" />
<glyph unicode="]" horiz-adv-x="324" d="M247 -141h-189v68h109v764h-109v68h189v-900z" />
<glyph unicode="^" horiz-adv-x="547" d="M121 294h-79l201 398h61l200 -398h-78l-145 288h-16z" />
<glyph unicode="_" horiz-adv-x="505" d="M506 -133h-507v64h507v-64z" />
<glyph unicode="`" horiz-adv-x="264" d="M147 582l-108 145h100l86 -145h-78z" />
<glyph unicode="a" horiz-adv-x="557" d="M403 0v54h-20q-53 -67 -158 -67q-84 0 -133 48t-49 116q0 69 47.5 118t145.5 49h164v20q0 48 -30 76.5t-93 28.5q-54 0 -84 -19.5t-33 -53.5h-85q4 69 59 108t141 39q96 0 152 -45.5t56 -128.5v-343h-80zM245 61q64 0 109.5 41t45.5 100v45h-151q-121 0 -121 -94 q0 -43 31 -67.5t86 -24.5z" />
<glyph unicode="b" horiz-adv-x="615" d="M82 727h85v-278h20q53 68 153 68q103 0 163.5 -74.5t60.5 -190.5q0 -115 -60.5 -190t-163.5 -75q-102 0 -156 68h-20v-55h-82v727zM324 61q75 0 115 52t40 139t-40 139t-115 52q-79 0 -118.5 -55t-39.5 -136t39.5 -136t118.5 -55z" />
<glyph unicode="c" horiz-adv-x="553" d="M423 152h85q-14 -75 -70 -120t-142 -45q-115 0 -180 74.5t-65 190.5q0 117 65 191t180 74q87 0 141.5 -43.5t67.5 -115.5h-85q-27 85 -124 85q-81 0 -120.5 -53.5t-39.5 -135.5q0 -83 40 -138t120 -55q106 0 127 91z" />
<glyph unicode="d" horiz-adv-x="615" d="M448 727h85v-727h-82v55h-20q-54 -68 -156 -68q-103 0 -163.5 75t-60.5 190q0 116 60.5 190.5t163.5 74.5q100 0 153 -68h20v278zM291 61q79 0 118.5 55t39.5 136t-39.5 136t-118.5 55q-75 0 -115 -52t-40 -139t40 -139t115 -52z" />
<glyph unicode="e" horiz-adv-x="569" d="M519 282v-29h-384q2 -91 43 -141.5t118 -50.5q104 0 128 78h86q-13 -68 -68.5 -110t-145.5 -42q-115 0 -180 75.5t-65 194.5q0 118 65 189t178 71q106 0 164.5 -68t60.5 -167zM292 443q-65 0 -103.5 -33.5t-48.5 -85.5h291q-5 50 -41.5 84.5t-97.5 34.5z" />
<glyph unicode="f" horiz-adv-x="391" d="M351 430h-140v-430h-85v430h-99v74h99v58q0 86 42 125.5t127 39.5h64v-74h-60q-88 0 -88 -94v-55h140v-74z" />
<glyph unicode="g" horiz-adv-x="615" d="M451 504h82v-479q0 -107 -63 -169.5t-172 -62.5q-97 0 -157 40t-71 114h84q19 -82 143 -82q76 0 113.5 43t37.5 121v41h-20q-51 -68 -150 -68q-103 0 -165 72.5t-62 184.5q0 113 62 185.5t165 72.5q101 0 153 -68h20v55zM291 76q77 0 118 53t41 130q0 78 -41 131t-118 53 q-73 0 -114 -50t-41 -134q0 -83 41.5 -133t113.5 -50z" />
<glyph unicode="h" horiz-adv-x="604" d="M332 517q93 0 145.5 -54t52.5 -146v-317h-85v302q0 139 -129 139q-66 0 -107.5 -49.5t-41.5 -117.5v-274h-85v727h85v-278h19q20 30 58 49t88 19z" />
<glyph unicode="i" horiz-adv-x="254" d="M176 627h-98v100h98v-100zM169 504v-504h-85v504h85z" />
<glyph unicode="j" horiz-adv-x="265" d="M19 -200h-63v74h46q50 0 72 25.5t22 76.5v528h85v-531q0 -82 -42.5 -127.5t-119.5 -45.5zM187 627h-98v100h98v-100z" />
<glyph unicode="k" horiz-adv-x="553" d="M540 0h-91l-145 274h-20l-117 -129v-145h-85v727h85v-477l238 254h101l-145 -156z" />
<glyph unicode="l" horiz-adv-x="249" d="M82 727h85v-727h-85v727z" />
<glyph unicode="m" horiz-adv-x="851" d="M606 517q85 0 128 -51t43 -141v-325h-85v317q0 124 -96 124q-59 0 -91.5 -39.5t-32.5 -104.5v-297h-85v315q0 61 -25.5 93.5t-72.5 32.5q-58 0 -90 -47t-32 -119v-275h-85v504h82v-49h19q40 62 128 62q90 0 134 -68h20q51 68 141 68z" />
<glyph unicode="n" horiz-adv-x="604" d="M332 517q93 0 145.5 -54t52.5 -146v-317h-85v302q0 139 -129 139q-66 0 -107.5 -49.5t-41.5 -117.5v-274h-85v504h82v-55h19q21 30 60 49t89 19z" />
<glyph unicode="o" horiz-adv-x="598" d="M299 517q115 0 181.5 -74.5t66.5 -190.5t-66.5 -190.5t-181.5 -74.5t-181.5 74.5t-66.5 190.5t66.5 190.5t181.5 74.5zM299 61q79 0 121 55.5t42 135.5t-42 135.5t-121 55.5t-121 -55.5t-42 -135.5t42 -135.5t121 -55.5z" />
<glyph unicode="p" horiz-adv-x="615" d="M167 -200h-85v704h82v-55h20q54 68 156 68q103 0 163.5 -75t60.5 -190q0 -116 -60.5 -190.5t-163.5 -74.5q-100 0 -153 68h-20v-255zM324 443q-79 0 -118.5 -55t-39.5 -136t39.5 -136t118.5 -55q75 0 115 52t40 139t-40 139t-115 52z" />
<glyph unicode="q" horiz-adv-x="615" d="M533 -200h-85v255h-20q-53 -68 -153 -68q-103 0 -163.5 74.5t-60.5 190.5q0 115 60.5 190t163.5 75q102 0 156 -68h20v55h82v-704zM291 443q-75 0 -115 -52t-40 -139t40 -139t115 -52q79 0 118.5 55t39.5 136t-39.5 136t-118.5 55z" />
<glyph unicode="r" horiz-adv-x="394" d="M365 504v-80h-39q-75 0 -117 -45t-42 -127v-252h-85v504h82v-61h20q49 61 146 61h35z" />
<glyph unicode="s" horiz-adv-x="514" d="M226 312l97 -17q148 -26 148 -151q0 -65 -55 -111t-152 -46q-103 0 -158.5 41.5t-65.5 116.5h85q16 -84 135 -84q58 0 92 20.5t34 60.5q0 34 -21.5 52.5t-71.5 27.5l-101 18q-131 24 -131 128q0 66 51 107.5t147 41.5q86 0 138 -39t60 -105h-84q-4 34 -38 52t-81 18 q-48 0 -78 -17.5t-30 -50.5q0 -28 18.5 -41.5t61.5 -21.5z" />
<glyph unicode="t" horiz-adv-x="408" d="M214 504h136v-74h-136v-279q0 -39 20 -57t69 -18h47v-76h-53q-87 0 -127.5 29t-40.5 105v296h-102v74h102v152h85v-152z" />
<glyph unicode="u" horiz-adv-x="601" d="M270 -13q-93 0 -144.5 54t-51.5 146v317h85v-302q0 -139 127 -139q65 0 106.5 49.5t41.5 117.5v274h85v-504h-82v55h-19q-21 -30 -59.5 -49t-88.5 -19z" />
<glyph unicode="v" horiz-adv-x="539" d="M191 0l-169 504h90l141 -424h37l136 424h91l-171 -504h-155z" />
<glyph unicode="w" horiz-adv-x="691" d="M293 339h110l84 -249h20l59 414h82l-74 -504h-130l-88 255h-19l-88 -255h-132l-73 504h82l61 -414h20z" />
<glyph unicode="x" horiz-adv-x="551" d="M416 0l-126 211h-29l-129 -211h-96l158 258l-142 246h93l117 -200h29l119 200h92l-144 -243l157 -261h-99z" />
<glyph unicode="y" horiz-adv-x="538" d="M218 -200h-87l103 245l-212 459h92l152 -332h25l140 332h91z" />
<glyph unicode="z" horiz-adv-x="515" d="M467 0h-419v94l306 317v19h-289v74h399v-93l-305 -317v-20h308v-74z" />
<glyph unicode="{" horiz-adv-x="390" d="M174 319v-20q55 -17 55 -105v-168q0 -99 89 -99h33v-68h-39q-73 0 -118 41.5t-45 117.5v160q0 49 -13.5 72.5t-49.5 23.5h-14v70h14q36 0 49.5 23.5t13.5 72.5v160q0 76 45 117.5t118 41.5h39v-68h-33q-89 0 -89 -99v-168q0 -88 -55 -105z" />
<glyph unicode="|" horiz-adv-x="251" d="M87 -141v900h77v-900h-77z" />
<glyph unicode="}" horiz-adv-x="390" d="M216 299v20q-55 17 -55 105v168q0 99 -89 99h-33v68h39q73 0 118 -41.5t45 -117.5v-160q0 -49 13.5 -72.5t49.5 -23.5h14v-70h-14q-36 0 -49.5 -23.5t-13.5 -72.5v-160q0 -76 -45 -117.5t-118 -41.5h-39v68h33q89 0 89 99v168q0 88 55 105z" />
<glyph unicode="~" horiz-adv-x="670" d="M516 343h67q0 -75 -34.5 -111.5t-94.5 -36.5q-33 0 -68.5 17t-60.5 37.5t-56 37.5t-56 17q-59 0 -59 -80h-67q0 148 129 148q34 0 69.5 -17t60.5 -37.5t55.5 -37.5t55.5 -17q59 0 59 80z" />
<glyph unicode="&#xa1;" horiz-adv-x="314" d="M202 -200h-90v285l16 230h57l17 -230v-285zM209 388h-104v116h104v-116z" />
<glyph unicode="&#xa2;" horiz-adv-x="553" d="M261 -80v69q-99 12 -154.5 84t-55.5 179t55.5 179t154.5 84v69h61v-68q75 -7 123 -49.5t60 -108.5h-85q-23 73 -98 83v-379q82 12 101 90h85q-13 -69 -61.5 -113t-124.5 -51v-68h-61zM136 254q0 -73 31 -125.5t94 -64.5v376q-63 -12 -94 -63t-31 -123z" />
<glyph unicode="&#xa3;" horiz-adv-x="635" d="M213 78h384v-78h-537v77h19q71 0 71 92v116h-90v74h90v139q0 102 56 159t154 57q94 0 147.5 -53t56.5 -148h-87q-3 123 -116 123q-63 0 -93 -37.5t-30 -100.5v-139h216v-74h-216v-107q0 -56 -25 -80v-20z" />
<glyph unicode="&#xa4;" horiz-adv-x="724" d="M590 7l-68 67q-71 -55 -159 -55t-161 55l-68 -67l-47 47l67 68q-55 73 -55 161q0 90 55 159l-67 68l47 48l68 -67q74 54 161 54t159 -54l68 67l47 -48l-67 -68q55 -71 55 -159q0 -89 -55 -160l67 -69zM363 83q80 0 135 57.5t55 142.5q0 84 -54.5 141t-135.5 57t-137 -57 t-56 -141q0 -85 56 -142.5t137 -57.5z" />
<glyph unicode="&#xa5;" horiz-adv-x="613" d="M105 302v57h97l-180 341h92l178 -341h28l179 341h92l-181 -341h98v-57h-128l-30 -58v-15h158v-57h-158v-172h-88v172h-157v57h157v15l-30 58h-127z" />
<glyph unicode="&#xa6;" horiz-adv-x="251" d="M87 414v345h77v-345h-77zM87 -141v345h77v-345h-77z" />
<glyph unicode="&#xa7;" horiz-adv-x="593" d="M378 149q74 42 74 99q0 40 -21.5 62t-67.5 36l-149 46q-28 -11 -51 -36t-23 -64t21.5 -61.5t67.5 -36.5zM533 260q0 -49 -26.5 -86.5t-58.5 -49.5v-20q47 -41 47 -111q0 -71 -57.5 -119t-147.5 -48q-93 0 -151 52t-61 146h81q2 -58 36 -92t97 -34q58 0 89.5 28t31.5 68 q0 68 -74 90l-134 40q-79 24 -113 61t-34 96q0 48 27 86t59 50v20q-47 38 -47 111q0 72 55.5 119t146.5 47q92 0 149.5 -51.5t61.5 -145.5h-81q-2 57 -36 91.5t-97 34.5q-57 0 -87 -28t-30 -68q0 -67 73 -90q3 0 35 -10t65 -20t35 -11q78 -24 112 -60.5t34 -95.5z" />
<glyph unicode="&#xa8;" horiz-adv-x="345" d="M128 627h-92v100h92v-100zM309 627h-92v100h92v-100z" />
<glyph unicode="&#xa9;" horiz-adv-x="857" d="M536 296h63q-9 -60 -51.5 -98.5t-108.5 -38.5q-84 0 -132.5 56t-48.5 141q0 87 48 142.5t133 55.5q63 0 105.5 -35t50.5 -93h-63q-14 72 -93 72q-59 0 -88.5 -39.5t-29.5 -102.5q0 -62 29.5 -101t88.5 -39q82 0 97 80zM429 727q154 0 261 -107.5t107 -262.5t-107 -262.5 t-261 -107.5t-261 107.5t-107 262.5t107 262.5t261 107.5zM429 43q130 0 219 91t89 223t-89 223t-219 91t-219 -91t-89 -223t89 -223t219 -91z" />
<glyph unicode="&#xaa;" horiz-adv-x="429" d="M303 334v41h-9q-42 -49 -119 -49q-64 0 -100 36.5t-36 87.5t35 87t109 36h117v18q0 33 -21.5 52t-64.5 19q-78 0 -84 -56h-67q3 53 44 84t105 31q71 0 112.5 -34t41.5 -97v-256h-63zM188 383q46 0 79 29.5t33 72.5v36h-103q-42 0 -67 -19t-25 -49q0 -32 23 -51t60 -19z " />
<glyph unicode="&#xab;" horiz-adv-x="564" d="M135 294v-20l162 -173h-94l-145 151v63l145 152h94zM344 294v-20l162 -173h-94l-146 151v63l146 152h94z" />
<glyph unicode="&#xac;" horiz-adv-x="683" d="M524 108v207h-437v72h509v-279h-72z" />
<glyph unicode="&#xad;" horiz-adv-x="369" d="M321 240h-273v75h273v-75z" />
<glyph unicode="&#xae;" horiz-adv-x="857" d="M463 547q61 0 94 -29.5t33 -83.5q0 -70 -56 -98l60 -170h-64l-55 156h-123v-156h-62v381h173zM454 376q74 0 74 58q0 57 -74 57h-102v-115h102zM429 727q154 0 261 -107.5t107 -262.5t-107 -262.5t-261 -107.5t-261 107.5t-107 262.5t107 262.5t261 107.5zM429 43 q130 0 219 91t89 223t-89 223t-219 91t-219 -91t-89 -223t89 -223t219 -91z" />
<glyph unicode="&#xaf;" horiz-adv-x="362" d="M322 639h-282v64h282v-64z" />
<glyph unicode="&#xb0;" horiz-adv-x="472" d="M431 523q0 -85 -56 -141.5t-140 -56.5t-140 56.5t-56 141.5t56 141.5t140 56.5t140 -56.5t56 -141.5zM235 383q58 0 95.5 40t37.5 100t-37.5 100t-95.5 40t-95.5 -40t-37.5 -100t37.5 -100t95.5 -40z" />
<glyph unicode="&#xb1;" horiz-adv-x="682" d="M87 0v73h508v-73h-508zM304 379v165h73v-165h218v-73h-218v-160h-73v160h-216v73h216z" />
<glyph unicode="&#xb2;" horiz-adv-x="362" d="M139 391h184v-58h-284v71q79 56 119 85q25 18 40 30.5t30 35t15 44.5q0 29 -17.5 46t-48.5 17q-73 0 -74 -69h-65q1 64 40 96t100 32q58 0 94 -31t36 -88q0 -71 -76 -128l-93 -69v-14z" />
<glyph unicode="&#xb3;" horiz-adv-x="368" d="M229 570q43 -6 71 -37t28 -79q0 -59 -40.5 -93.5t-104.5 -34.5q-63 0 -103.5 35.5t-42.5 90.5h64q3 -31 26 -49t56 -18q35 0 57.5 19t22.5 51q0 33 -21.5 51.5t-57.5 18.5q-18 0 -36 -3v59l76 61v14h-159v58h247v-64l-83 -66v-14z" />
<glyph unicode="&#xb4;" horiz-adv-x="264" d="M225 727l-109 -145h-77l86 145h100z" />
<glyph unicode="&#xb5;" horiz-adv-x="609" d="M278 -13q-63 0 -111 27v-214h-85v704h85v-302q0 -139 127 -139q65 0 106.5 49.5t41.5 117.5v274h85v-504h-82v55h-19q-21 -30 -59.5 -49t-88.5 -19z" />
<glyph unicode="&#xb6;" horiz-adv-x="655" d="M335 -177h-77v491q-97 0 -158.5 50t-61.5 150q0 101 59 150.5t161 49.5h349v-65h-80v-826h-77v826h-115v-826z" />
<glyph unicode="&#xb7;" horiz-adv-x="258" d="M181 264h-104v116h104v-116z" />
<glyph unicode="&#xb8;" horiz-adv-x="262" d="M98 23h46l-32 -83h13q11 8 31 8q28 0 48 -22t20 -56q0 -35 -24 -60t-71 -25q-40 0 -63.5 20.5t-25.5 48.5h54q7 -24 36 -24q17 0 27 10.5t10 27.5t-10 27t-26 10q-18 0 -31 -11h-52z" />
<glyph unicode="&#xb9;" horiz-adv-x="331" d="M199 391h93v-58h-253v58h94v246h-14l-80 -45v65l97 57h63v-323z" />
<glyph unicode="&#xba;" horiz-adv-x="446" d="M223 721q85 0 134.5 -56t49.5 -141t-49.5 -141.5t-134.5 -56.5t-134.5 56.5t-49.5 141.5t49.5 141t134.5 56zM223 385q56 0 87 41t31 98t-31 97t-87 40q-57 0 -87.5 -40t-30.5 -97t30.5 -98t87.5 -41z" />
<glyph unicode="&#xbb;" horiz-adv-x="564" d="M220 274v20l-162 173h94l145 -152v-63l-145 -151h-94zM428 274v20l-162 173h94l146 -152v-63l-146 -151h-94z" />
<glyph unicode="&#xbc;" horiz-adv-x="865" d="M267 0h-77l424 700h76zM199 391h93v-58h-253v58h94v246h-14l-80 -45v65l97 57h63v-323zM774 144h52v-58h-52v-86h-65v86h-192v62l173 233h84v-237zM590 144h120v158h-14l-106 -144v-14z" />
<glyph unicode="&#xbd;" horiz-adv-x="874" d="M267 0h-77l424 700h76zM199 391h93v-58h-253v58h94v246h-14l-80 -45v65l97 57h63v-323zM651 58h184v-58h-284v71q79 56 119 85q25 18 40 30.5t30 35t15 44.5q0 29 -17.5 46t-48.5 17q-73 0 -74 -69h-65q1 64 40 96t100 32q58 0 94 -31t36 -88q0 -71 -76 -128l-93 -69v-14 z" />
<glyph unicode="&#xbe;" horiz-adv-x="869" d="M271 0h-77l424 700h76zM778 144h52v-58h-52v-86h-65v86h-192v62l173 233h84v-237zM594 144h120v158h-14l-106 -144v-14zM227 570q43 -6 71 -37t28 -79q0 -59 -40.5 -93.5t-104.5 -34.5q-63 0 -103.5 35.5t-42.5 90.5h64q3 -31 26 -49t56 -18q35 0 57.5 19t22.5 51 q0 33 -21.5 51.5t-57.5 18.5q-18 0 -36 -3v59l76 61v14h-159v58h247v-64l-83 -66v-14z" />
<glyph unicode="&#xbf;" horiz-adv-x="542" d="M232 504h104v-116h-104v116zM269 -207q-98 0 -156.5 52.5t-58.5 140.5q0 36 8 64t27.5 51.5t36.5 38t50 39.5q40 30 52.5 50t12.5 66v20h86v-20q0 -62 -20.5 -95.5t-75.5 -74.5q-49 -36 -70 -64t-21 -75q0 -49 34.5 -84t93.5 -35q129 0 136 133h86q-4 -96 -62.5 -151.5 t-158.5 -55.5z" />
<glyph unicode="&#xc0;" horiz-adv-x="687" d="M573 0l-74 219h-313l-74 -219h-92l247 714h152l248 -714h-94zM322 622l-109 -321h258l-109 321h-40zM303 767l-108 129h101l86 -129h-79z" />
<glyph unicode="&#xc1;" horiz-adv-x="687" d="M573 0l-74 219h-313l-74 -219h-92l247 714h152l248 -714h-94zM322 622l-109 -321h258l-109 321h-40zM490 896l-109 -129h-78l85 129h102z" />
<glyph unicode="&#xc2;" horiz-adv-x="687" d="M573 0l-74 219h-313l-74 -219h-92l247 714h152l248 -714h-94zM322 622l-109 -321h258l-109 321h-40zM390 896l107 -129h-84l-61 71h-18l-61 -71h-82l107 129h92z" />
<glyph unicode="&#xc3;" horiz-adv-x="687" d="M573 0l-74 219h-313l-74 -219h-92l247 714h152l248 -714h-94zM322 622l-109 -321h258l-109 321h-40zM451 896h55q0 -129 -94 -129q-28 0 -55.5 16.5t-50.5 33t-39 16.5q-34 0 -34 -66h-55q0 129 94 129q28 0 55.5 -16.5t50.5 -33t39 -16.5q20 0 27 17t7 49z" />
<glyph unicode="&#xc4;" horiz-adv-x="687" d="M573 0l-74 219h-313l-74 -219h-92l247 714h152l248 -714h-94zM322 622l-109 -321h258l-109 321h-40zM300 796h-92v100h92v-100zM481 796h-92v100h92v-100z" />
<glyph unicode="&#xc5;" horiz-adv-x="687" d="M343 877q45 0 77 -31.5t32 -76.5q0 -40 -28 -71l243 -698h-94l-74 219h-313l-74 -219h-92l241 698q-27 30 -27 71q0 45 32 76.5t77 31.5zM322 622l-109 -321h258l-109 321h-40zM343 714q23 0 39 16t16 39t-16 39t-39 16t-39 -16t-16 -39t16 -39t39 -16z" />
<glyph unicode="&#xc6;" horiz-adv-x="1009" d="M392 714h554v-82h-357v-221h277v-82h-277v-247h372v-82h-462v219h-272l-116 -219h-103zM441 632l-174 -331h232v331h-58z" />
<glyph unicode="&#xc7;" horiz-adv-x="718" d="M573 203h95q-22 -98 -95.5 -157t-187.5 -59h-6l-18 -47h13q11 8 31 8q28 0 48 -22t20 -56q0 -35 -24 -60t-71 -25q-40 0 -63.5 20.5t-25.5 48.5h54q7 -24 36 -24q17 0 27 10.5t10 27.5t-10 27t-26 10q-18 0 -31 -11h-52l37 96q-133 17 -206 117t-73 250q0 164 88 267 t243 103q107 0 180 -54t94 -146h-95q-42 118 -179 118q-118 0 -179 -83t-61 -205q0 -123 60.5 -205.5t178.5 -82.5q74 0 122 35.5t66 98.5z" />
<glyph unicode="&#xc8;" horiz-adv-x="652" d="M181 82h423v-82h-513v714h497v-82h-407v-221h328v-82h-328v-247zM323 767l-108 129h101l86 -129h-79z" />
<glyph unicode="&#xc9;" horiz-adv-x="652" d="M181 82h423v-82h-513v714h497v-82h-407v-221h328v-82h-328v-247zM451 896l-109 -129h-78l85 129h102z" />
<glyph unicode="&#xca;" horiz-adv-x="652" d="M181 82h423v-82h-513v714h497v-82h-407v-221h328v-82h-328v-247zM385 896l107 -129h-84l-61 71h-18l-61 -71h-82l107 129h92z" />
<glyph unicode="&#xcb;" horiz-adv-x="652" d="M181 82h423v-82h-513v714h497v-82h-407v-221h328v-82h-328v-247zM290 796h-92v100h92v-100zM471 796h-92v100h92v-100z" />
<glyph unicode="&#xcc;" horiz-adv-x="284" d="M97 714h90v-714h-90v714zM104 767l-108 129h101l86 -129h-79z" />
<glyph unicode="&#xcd;" horiz-adv-x="284" d="M97 714h90v-714h-90v714zM291 896l-109 -129h-78l85 129h102z" />
<glyph unicode="&#xce;" horiz-adv-x="284" d="M97 714h90v-714h-90v714zM189 896l107 -129h-84l-61 71h-18l-61 -71h-82l107 129h92z" />
<glyph unicode="&#xcf;" horiz-adv-x="284" d="M97 714h90v-714h-90v714zM98 796h-92v100h92v-100zM279 796h-92v100h92v-100z" />
<glyph unicode="&#xd0;" horiz-adv-x="768" d="M20 332v74h96v308h267q161 0 245.5 -96t84.5 -261t-85 -261t-245 -96h-267v332h-96zM383 82q123 0 181 76.5t58 198.5t-58 198.5t-181 76.5h-177v-226h215v-74h-215v-250h177z" />
<glyph unicode="&#xd1;" horiz-adv-x="766" d="M587 714h88v-714h-140l-336 597h-20v-597h-88v714h140l336 -597h20v597zM492 896h55q0 -129 -94 -129q-28 0 -55.5 16.5t-50.5 33t-39 16.5q-34 0 -34 -66h-55q0 129 94 129q28 0 55.5 -16.5t50.5 -33t39 -16.5q20 0 27 17t7 49z" />
<glyph unicode="&#xd2;" horiz-adv-x="776" d="M388 727q157 0 245 -104.5t88 -265.5t-88 -265.5t-245 -104.5q-158 0 -245.5 104.5t-87.5 265.5t87.5 265.5t245.5 104.5zM388 69q120 0 181 82.5t61 205.5t-61 205.5t-181 82.5t-181 -82.5t-61 -205.5t61 -205.5t181 -82.5zM359 767l-108 129h101l86 -129h-79z" />
<glyph unicode="&#xd3;" horiz-adv-x="776" d="M388 727q157 0 245 -104.5t88 -265.5t-88 -265.5t-245 -104.5q-158 0 -245.5 104.5t-87.5 265.5t87.5 265.5t245.5 104.5zM388 69q120 0 181 82.5t61 205.5t-61 205.5t-181 82.5t-181 -82.5t-61 -205.5t61 -205.5t181 -82.5zM532 896l-109 -129h-78l85 129h102z" />
<glyph unicode="&#xd4;" horiz-adv-x="776" d="M388 727q157 0 245 -104.5t88 -265.5t-88 -265.5t-245 -104.5q-158 0 -245.5 104.5t-87.5 265.5t87.5 265.5t245.5 104.5zM388 69q120 0 181 82.5t61 205.5t-61 205.5t-181 82.5t-181 -82.5t-61 -205.5t61 -205.5t181 -82.5zM435 896l107 -129h-84l-61 71h-18l-61 -71 h-82l107 129h92z" />
<glyph unicode="&#xd5;" horiz-adv-x="776" d="M388 727q157 0 245 -104.5t88 -265.5t-88 -265.5t-245 -104.5q-158 0 -245.5 104.5t-87.5 265.5t87.5 265.5t245.5 104.5zM388 69q120 0 181 82.5t61 205.5t-61 205.5t-181 82.5t-181 -82.5t-61 -205.5t61 -205.5t181 -82.5zM497 896h55q0 -129 -94 -129 q-28 0 -55.5 16.5t-50.5 33t-39 16.5q-34 0 -34 -66h-55q0 129 94 129q28 0 55.5 -16.5t50.5 -33t39 -16.5q20 0 27 17t7 49z" />
<glyph unicode="&#xd6;" horiz-adv-x="776" d="M388 727q157 0 245 -104.5t88 -265.5t-88 -265.5t-245 -104.5q-158 0 -245.5 104.5t-87.5 265.5t87.5 265.5t245.5 104.5zM388 69q120 0 181 82.5t61 205.5t-61 205.5t-181 82.5t-181 -82.5t-61 -205.5t61 -205.5t181 -82.5zM343 796h-92v100h92v-100zM524 796h-92v100 h92v-100z" />
<glyph unicode="&#xd7;" horiz-adv-x="639" d="M269 284l-182 183l50 50l183 -183l182 183l50 -50l-182 -183l182 -183l-50 -50l-182 182l-183 -182l-50 50z" />
<glyph unicode="&#xd8;" horiz-adv-x="776" d="M388 727q120 0 206 -68l46 55h84l-83 -101q80 -102 80 -256q0 -161 -88 -265.5t-245 -104.5q-122 0 -207 67l-45 -54h-84l83 101q-80 100 -80 256q0 161 87.5 265.5t245.5 104.5zM388 69q120 0 181 82.5t61 205.5q0 110 -47 185l-347 -421q58 -52 152 -52zM146 357 q0 -112 47 -186l347 422q-62 52 -152 52q-120 0 -181 -82.5t-61 -205.5z" />
<glyph unicode="&#xd9;" horiz-adv-x="740" d="M561 714h90v-459q0 -127 -73 -197.5t-208 -70.5t-208 70.5t-73 197.5v459h90v-458q0 -86 49.5 -136.5t141.5 -50.5t141.5 50.5t49.5 136.5v458zM350 767l-108 129h101l86 -129h-79z" />
<glyph unicode="&#xda;" horiz-adv-x="740" d="M561 714h90v-459q0 -127 -73 -197.5t-208 -70.5t-208 70.5t-73 197.5v459h90v-458q0 -86 49.5 -136.5t141.5 -50.5t141.5 50.5t49.5 136.5v458zM497 896l-109 -129h-78l85 129h102z" />
<glyph unicode="&#xdb;" horiz-adv-x="740" d="M561 714h90v-459q0 -127 -73 -197.5t-208 -70.5t-208 70.5t-73 197.5v459h90v-458q0 -86 49.5 -136.5t141.5 -50.5t141.5 50.5t49.5 136.5v458zM417 896l107 -129h-84l-61 71h-18l-61 -71h-82l107 129h92z" />
<glyph unicode="&#xdc;" horiz-adv-x="740" d="M561 714h90v-459q0 -127 -73 -197.5t-208 -70.5t-208 70.5t-73 197.5v459h90v-458q0 -86 49.5 -136.5t141.5 -50.5t141.5 50.5t49.5 136.5v458zM326 796h-92v100h92v-100zM507 796h-92v100h92v-100z" />
<glyph unicode="&#xdd;" horiz-adv-x="643" d="M307 389h28l191 325h97l-257 -441v-273h-90v273l-257 441h97zM463 896l-109 -129h-78l85 129h102z" />
<glyph unicode="&#xde;" horiz-adv-x="647" d="M364 562q110 0 170.5 -54t60.5 -151q0 -96 -60.5 -150t-170.5 -54h-183v-153h-90v714h90v-152h183zM351 233q153 0 153 124q0 125 -153 125h-170v-249h170z" />
<glyph unicode="&#xdf;" horiz-adv-x="618" d="M446 383q55 -12 92 -59t37 -114q0 -101 -61.5 -155.5t-166.5 -54.5h-62v74h50q155 0 155 136q0 66 -44 103.5t-127 37.5h-15v73h15q70 0 102 31.5t32 80.5q0 54 -33 85.5t-90 31.5q-132 0 -132 -156v-497h-85v430h-94v74h94q0 105 56.5 164.5t161.5 59.5q94 0 150 -51.5 t56 -130.5q0 -53 -24.5 -91.5t-66.5 -52.5v-19z" />
<glyph unicode="&#xe0;" horiz-adv-x="557" d="M403 0v54h-20q-53 -67 -158 -67q-84 0 -133 48t-49 116q0 69 47.5 118t145.5 49h164v20q0 48 -30 76.5t-93 28.5q-54 0 -84 -19.5t-33 -53.5h-85q4 69 59 108t141 39q96 0 152 -45.5t56 -128.5v-343h-80zM245 61q64 0 109.5 41t45.5 100v45h-151q-121 0 -121 -94 q0 -43 31 -67.5t86 -24.5zM260 582l-108 145h100l86 -145h-78z" />
<glyph unicode="&#xe1;" horiz-adv-x="557" d="M403 0v54h-20q-53 -67 -158 -67q-84 0 -133 48t-49 116q0 69 47.5 118t145.5 49h164v20q0 48 -30 76.5t-93 28.5q-54 0 -84 -19.5t-33 -53.5h-85q4 69 59 108t141 39q96 0 152 -45.5t56 -128.5v-343h-80zM245 61q64 0 109.5 41t45.5 100v45h-151q-121 0 -121 -94 q0 -43 31 -67.5t86 -24.5zM410 727l-109 -145h-77l86 145h100z" />
<glyph unicode="&#xe2;" horiz-adv-x="557" d="M403 0v54h-20q-53 -67 -158 -67q-84 0 -133 48t-49 116q0 69 47.5 118t145.5 49h164v20q0 48 -30 76.5t-93 28.5q-54 0 -84 -19.5t-33 -53.5h-85q4 69 59 108t141 39q96 0 152 -45.5t56 -128.5v-343h-80zM245 61q64 0 109.5 41t45.5 100v45h-151q-121 0 -121 -94 q0 -43 31 -67.5t86 -24.5zM329 727l107 -145h-80l-65 86h-18l-64 -86h-79l108 145h91z" />
<glyph unicode="&#xe3;" horiz-adv-x="557" d="M403 0v54h-20q-53 -67 -158 -67q-84 0 -133 48t-49 116q0 69 47.5 118t145.5 49h164v20q0 48 -30 76.5t-93 28.5q-54 0 -84 -19.5t-33 -53.5h-85q4 69 59 108t141 39q96 0 152 -45.5t56 -128.5v-343h-80zM245 61q64 0 109.5 41t45.5 100v45h-151q-121 0 -121 -94 q0 -43 31 -67.5t86 -24.5zM390 720h54q0 -132 -93 -132q-28 0 -55.5 17.5t-50.5 35t-39 17.5q-35 0 -35 -70h-54q0 132 94 132q35 0 81 -35.5t64 -35.5q21 0 27.5 18t6.5 53z" />
<glyph unicode="&#xe4;" horiz-adv-x="557" d="M403 0v54h-20q-53 -67 -158 -67q-84 0 -133 48t-49 116q0 69 47.5 118t145.5 49h164v20q0 48 -30 76.5t-93 28.5q-54 0 -84 -19.5t-33 -53.5h-85q4 69 59 108t141 39q96 0 152 -45.5t56 -128.5v-343h-80zM245 61q64 0 109.5 41t45.5 100v45h-151q-121 0 -121 -94 q0 -43 31 -67.5t86 -24.5zM235 627h-92v100h92v-100zM416 627h-92v100h92v-100z" />
<glyph unicode="&#xe5;" horiz-adv-x="557" d="M403 0v54h-20q-53 -67 -158 -67q-84 0 -133 48t-49 116q0 69 47.5 118t145.5 49h164v20q0 48 -30 76.5t-93 28.5q-54 0 -84 -19.5t-33 -53.5h-85q4 69 59 108t141 39q96 0 152 -45.5t56 -128.5v-343h-80zM245 61q64 0 109.5 41t45.5 100v45h-151q-121 0 -121 -94 q0 -43 31 -67.5t86 -24.5zM170 687q0 45 32 76.5t77 31.5t77 -31.5t32 -76.5t-32 -76.5t-77 -31.5t-77 31.5t-32 76.5zM224 687q0 -23 16 -39t39 -16t39 16t16 39t-16 39t-39 16t-39 -16t-16 -39z" />
<glyph unicode="&#xe6;" horiz-adv-x="900" d="M850 247h-376q1 -85 42 -135.5t115 -50.5q102 0 127 78h86q-14 -69 -68.5 -110.5t-144.5 -41.5q-122 0 -188 98h-20q-29 -43 -79 -70.5t-115 -27.5q-87 0 -136.5 47.5t-49.5 117.5q0 68 47.5 117t144.5 49h157v20q0 48 -30 76.5t-89 28.5q-51 0 -80.5 -19.5t-32.5 -53.5 h-85q5 69 58.5 108t138.5 39q116 0 167 -75h20q65 75 171 75q103 0 161 -68.5t59 -167.5v-34zM392 198v49h-139q-61 0 -93 -24.5t-32 -67.5q0 -44 31.5 -69t84.5 -25q63 0 105.5 39t42.5 98zM627 443q-63 0 -100 -35t-48 -90h284q-6 54 -41.5 89.5t-94.5 35.5z" />
<glyph unicode="&#xe7;" horiz-adv-x="553" d="M423 152h85q-14 -75 -69.5 -120t-141.5 -45l-18 -47h13q11 8 31 8q28 0 48 -22t20 -56q0 -35 -24 -60t-71 -25q-40 0 -63.5 20.5t-25.5 48.5h54q7 -24 36 -24q17 0 27 10.5t10 27.5t-10 27t-26 10q-18 0 -31 -11h-52l37 96q-95 14 -148 85.5t-53 176.5q0 117 65 191 t180 74q87 0 141.5 -43.5t67.5 -115.5h-85q-27 85 -124 85q-81 0 -120.5 -53.5t-39.5 -135.5q0 -83 40 -138t120 -55q106 0 127 91z" />
<glyph unicode="&#xe8;" horiz-adv-x="569" d="M519 282v-29h-384q2 -91 43 -141.5t118 -50.5q104 0 128 78h86q-13 -68 -68.5 -110t-145.5 -42q-115 0 -180 75.5t-65 194.5q0 118 65 189t178 71q106 0 164.5 -68t60.5 -167zM292 443q-65 0 -103.5 -33.5t-48.5 -85.5h291q-5 50 -41.5 84.5t-97.5 34.5zM275 582 l-108 145h100l86 -145h-78z" />
<glyph unicode="&#xe9;" horiz-adv-x="569" d="M519 282v-29h-384q2 -91 43 -141.5t118 -50.5q104 0 128 78h86q-13 -68 -68.5 -110t-145.5 -42q-115 0 -180 75.5t-65 194.5q0 118 65 189t178 71q106 0 164.5 -68t60.5 -167zM292 443q-65 0 -103.5 -33.5t-48.5 -85.5h291q-5 50 -41.5 84.5t-97.5 34.5zM431 727 l-109 -145h-77l86 145h100z" />
<glyph unicode="&#xea;" horiz-adv-x="569" d="M519 282v-29h-384q2 -91 43 -141.5t118 -50.5q104 0 128 78h86q-13 -68 -68.5 -110t-145.5 -42q-115 0 -180 75.5t-65 194.5q0 118 65 189t178 71q106 0 164.5 -68t60.5 -167zM292 443q-65 0 -103.5 -33.5t-48.5 -85.5h291q-5 50 -41.5 84.5t-97.5 34.5zM342 727 l107 -145h-80l-65 86h-18l-64 -86h-79l108 145h91z" />
<glyph unicode="&#xeb;" horiz-adv-x="569" d="M519 282v-29h-384q2 -91 43 -141.5t118 -50.5q104 0 128 78h86q-13 -68 -68.5 -110t-145.5 -42q-115 0 -180 75.5t-65 194.5q0 118 65 189t178 71q106 0 164.5 -68t60.5 -167zM292 443q-65 0 -103.5 -33.5t-48.5 -85.5h291q-5 50 -41.5 84.5t-97.5 34.5zM246 627h-92v100 h92v-100zM427 627h-92v100h92v-100z" />
<glyph unicode="&#xec;" horiz-adv-x="254" d="M90 582l-108 145h100l86 -145h-78zM169 504v-504h-85v504h85z" />
<glyph unicode="&#xed;" horiz-adv-x="254" d="M276 727l-109 -145h-77l86 145h100zM169 504v-504h-85v504h85z" />
<glyph unicode="&#xee;" horiz-adv-x="254" d="M169 504v-504h-85v504h85zM173 727l107 -145h-80l-65 86h-18l-64 -86h-79l108 145h91z" />
<glyph unicode="&#xef;" horiz-adv-x="254" d="M82 627h-92v100h92v-100zM263 627h-92v100h92v-100zM169 504v-504h-85v504h85z" />
<glyph unicode="&#xf0;" horiz-adv-x="592" d="M142 550v59h164q-51 55 -143 118h107q79 -56 134 -118h122v-59h-77q92 -122 92 -292q0 -121 -63 -196t-183 -75q-111 0 -177.5 71.5t-66.5 176.5t64 175t166 70q79 0 125 -44h22q-22 59 -71 114h-215zM296 61q80 0 120 49t40 124q0 76 -40 125t-120 49t-121 -49.5 t-41 -124.5t41 -124t121 -49z" />
<glyph unicode="&#xf1;" horiz-adv-x="604" d="M332 517q93 0 145.5 -54t52.5 -146v-317h-85v302q0 139 -129 139q-66 0 -107.5 -49.5t-41.5 -117.5v-274h-85v504h82v-55h19q21 30 60 49t89 19zM416 720h54q0 -132 -93 -132q-28 0 -55.5 17.5t-50.5 35t-39 17.5q-35 0 -35 -70h-54q0 132 94 132q35 0 81 -35.5t64 -35.5 q21 0 27.5 18t6.5 53z" />
<glyph unicode="&#xf2;" horiz-adv-x="598" d="M299 517q115 0 181.5 -74.5t66.5 -190.5t-66.5 -190.5t-181.5 -74.5t-181.5 74.5t-66.5 190.5t66.5 190.5t181.5 74.5zM299 61q79 0 121 55.5t42 135.5t-42 135.5t-121 55.5t-121 -55.5t-42 -135.5t42 -135.5t121 -55.5zM269 582l-108 145h100l86 -145h-78z" />
<glyph unicode="&#xf3;" horiz-adv-x="598" d="M299 517q115 0 181.5 -74.5t66.5 -190.5t-66.5 -190.5t-181.5 -74.5t-181.5 74.5t-66.5 190.5t66.5 190.5t181.5 74.5zM299 61q79 0 121 55.5t42 135.5t-42 135.5t-121 55.5t-121 -55.5t-42 -135.5t42 -135.5t121 -55.5zM445 727l-109 -145h-77l86 145h100z" />
<glyph unicode="&#xf4;" horiz-adv-x="598" d="M299 517q115 0 181.5 -74.5t66.5 -190.5t-66.5 -190.5t-181.5 -74.5t-181.5 74.5t-66.5 190.5t66.5 190.5t181.5 74.5zM299 61q79 0 121 55.5t42 135.5t-42 135.5t-121 55.5t-121 -55.5t-42 -135.5t42 -135.5t121 -55.5zM345 727l107 -145h-80l-65 86h-18l-64 -86h-79 l108 145h91z" />
<glyph unicode="&#xf5;" horiz-adv-x="598" d="M299 517q115 0 181.5 -74.5t66.5 -190.5t-66.5 -190.5t-181.5 -74.5t-181.5 74.5t-66.5 190.5t66.5 190.5t181.5 74.5zM299 61q79 0 121 55.5t42 135.5t-42 135.5t-121 55.5t-121 -55.5t-42 -135.5t42 -135.5t121 -55.5zM408 720h54q0 -132 -93 -132q-28 0 -55.5 17.5 t-50.5 35t-39 17.5q-35 0 -35 -70h-54q0 132 94 132q35 0 81 -35.5t64 -35.5q21 0 27.5 18t6.5 53z" />
<glyph unicode="&#xf6;" horiz-adv-x="598" d="M299 517q115 0 181.5 -74.5t66.5 -190.5t-66.5 -190.5t-181.5 -74.5t-181.5 74.5t-66.5 190.5t66.5 190.5t181.5 74.5zM299 61q79 0 121 55.5t42 135.5t-42 135.5t-121 55.5t-121 -55.5t-42 -135.5t42 -135.5t121 -55.5zM255 627h-92v100h92v-100zM436 627h-92v100h92 v-100z" />
<glyph unicode="&#xf7;" horiz-adv-x="684" d="M392 25h-100v111h100v-111zM392 433h-100v111h100v-111zM597 248h-510v73h510v-73z" />
<glyph unicode="&#xf8;" horiz-adv-x="601" d="M301 517q85 0 148 -45l27 32h78l-62 -73q57 -72 57 -179q0 -116 -66.5 -190.5t-181.5 -74.5q-88 0 -149 45l-27 -32h-78l62 73q-56 70 -56 179q0 116 66.5 190.5t181.5 74.5zM301 61q79 0 121 55.5t42 135.5q0 66 -28 113l-232 -273q41 -31 97 -31zM138 252 q0 -64 27 -114l232 273q-40 32 -96 32q-79 0 -121 -55.5t-42 -135.5z" />
<glyph unicode="&#xf9;" horiz-adv-x="594" d="M270 -13q-93 0 -144.5 54t-51.5 146v317h85v-302q0 -139 127 -139q65 0 106.5 49.5t41.5 117.5v274h85v-504h-82v55h-19q-21 -30 -59.5 -49t-88.5 -19zM270 582l-108 145h100l86 -145h-78z" />
<glyph unicode="&#xfa;" horiz-adv-x="601" d="M270 -13q-93 0 -144.5 54t-51.5 146v317h85v-302q0 -139 127 -139q65 0 106.5 49.5t41.5 117.5v274h85v-504h-82v55h-19q-21 -30 -59.5 -49t-88.5 -19zM424 727l-109 -145h-77l86 145h100z" />
<glyph unicode="&#xfb;" horiz-adv-x="594" d="M270 -13q-93 0 -144.5 54t-51.5 146v317h85v-302q0 -139 127 -139q65 0 106.5 49.5t41.5 117.5v274h85v-504h-82v55h-19q-21 -30 -59.5 -49t-88.5 -19zM342 727l107 -145h-80l-65 86h-18l-64 -86h-79l108 145h91z" />
<glyph unicode="&#xfc;" horiz-adv-x="601" d="M270 -13q-93 0 -144.5 54t-51.5 146v317h85v-302q0 -139 127 -139q65 0 106.5 49.5t41.5 117.5v274h85v-504h-82v55h-19q-21 -30 -59.5 -49t-88.5 -19zM251 627h-92v100h92v-100zM432 627h-92v100h92v-100z" />
<glyph unicode="&#xfd;" horiz-adv-x="538" d="M218 -200h-87l103 245l-212 459h92l152 -332h25l140 332h91zM417 727l-109 -145h-77l86 145h100z" />
<glyph unicode="&#xfe;" horiz-adv-x="615" d="M564 252q0 -116 -60.5 -190.5t-163.5 -74.5q-100 0 -153 68h-20v-255h-85v927h85v-278h20q53 68 153 68q103 0 163.5 -74.5t60.5 -190.5zM479 252q0 87 -40 139t-115 52q-79 0 -118.5 -55t-39.5 -136t39.5 -136t118.5 -55q75 0 115 52t40 139z" />
<glyph unicode="&#xff;" horiz-adv-x="538" d="M218 -200h-87l103 245l-212 459h92l152 -332h25l140 332h91zM228 627h-92v100h92v-100zM409 627h-92v100h92v-100z" />
<glyph unicode="&#x100;" horiz-adv-x="688" d="M573 0l-74 219h-313l-74 -219h-92l247 714h152l248 -714h-94zM322 622l-109 -321h258l-109 321h-40zM484 809h-282v64h282v-64z" />
<glyph unicode="&#x101;" horiz-adv-x="558" d="M403 0v54h-20q-53 -67 -158 -67q-84 0 -133 48t-49 116q0 69 47.5 118t145.5 49h164v20q0 48 -30 76.5t-93 28.5q-54 0 -84 -19.5t-33 -53.5h-85q4 69 59 108t141 39q96 0 152 -45.5t56 -128.5v-343h-80zM245 61q64 0 109.5 41t45.5 100v45h-151q-121 0 -121 -94 q0 -43 31 -67.5t86 -24.5zM425 639h-282v64h282v-64z" />
<glyph unicode="&#x102;" horiz-adv-x="687" d="M573 0l-74 219h-313l-74 -219h-92l247 714h152l248 -714h-94zM322 622l-109 -321h258l-109 321h-40zM419 896h64q0 -62 -37 -96t-103 -34q-65 0 -101.5 34t-37.5 96h64q0 -33 19.5 -51.5t55.5 -18.5q37 0 56.5 18.5t19.5 51.5z" />
<glyph unicode="&#x103;" horiz-adv-x="558" d="M403 0v54h-20q-53 -67 -158 -67q-84 0 -133 48t-49 116q0 69 47.5 118t145.5 49h164v20q0 48 -30 76.5t-93 28.5q-54 0 -84 -19.5t-33 -53.5h-85q4 69 59 108t141 39q96 0 152 -45.5t56 -128.5v-343h-80zM245 61q64 0 109.5 41t45.5 100v45h-151q-121 0 -121 -94 q0 -43 31 -67.5t86 -24.5zM353 727h66q0 -68 -36.5 -106.5t-101.5 -38.5t-102 38.5t-37 106.5h65q0 -39 18.5 -61.5t54.5 -22.5t54.5 22.5t18.5 61.5z" />
<glyph unicode="&#x104;" horiz-adv-x="688" d="M573 0l-74 219h-313l-74 -219h-92l247 714h152l248 -714q-31 -16 -51.5 -40.5t-20.5 -49.5t19.5 -38.5t54.5 -13.5v-58h-21q-58 0 -91 25t-33 70q0 31 21 60t52 45h-24zM322 622l-109 -321h258l-109 321h-40z" />
<glyph unicode="&#x105;" horiz-adv-x="558" d="M403 0v54h-20q-53 -67 -158 -67q-84 0 -133 48t-49 116q0 69 47.5 118t145.5 49h164v20q0 48 -30 76.5t-93 28.5q-54 0 -84 -19.5t-33 -53.5h-85q4 69 59 108t141 39q96 0 152 -45.5t56 -128.5v-343q-31 -16 -51.5 -40.5t-20.5 -49.5t19.5 -38.5t54.5 -13.5v-58h-21 q-58 0 -91 25t-33 70q0 30 18 59t45 46zM245 61q64 0 109.5 41.5t45.5 101.5v46h-151q-121 0 -121 -96q0 -43 31 -68t86 -25z" />
<glyph unicode="&#x106;" horiz-adv-x="718" d="M573 203h95q-22 -98 -95.5 -157t-187.5 -59q-155 0 -242.5 103t-87.5 267t88 267t243 103q107 0 180 -54t94 -146h-95q-42 118 -179 118q-118 0 -179 -83t-61 -205q0 -123 60.5 -205.5t178.5 -82.5q74 0 122 35.5t66 98.5zM521 896l-109 -129h-78l85 129h102z" />
<glyph unicode="&#x107;" horiz-adv-x="553" d="M423 152h85q-14 -75 -70 -120t-142 -45q-115 0 -180 74.5t-65 190.5q0 117 65 191t180 74q87 0 141.5 -43.5t67.5 -115.5h-85q-27 85 -124 85q-81 0 -120.5 -53.5t-39.5 -135.5q0 -83 40 -138t120 -55q106 0 127 91zM423 727l-109 -145h-77l86 145h100z" />
<glyph unicode="&#x10c;" horiz-adv-x="718" d="M573 203h95q-22 -98 -95.5 -157t-187.5 -59q-155 0 -242.5 103t-87.5 267t88 267t243 103q107 0 180 -54t94 -146h-95q-42 118 -179 118q-118 0 -179 -83t-61 -205q0 -123 60.5 -205.5t178.5 -82.5q74 0 122 35.5t66 98.5zM332 767l-107 129h84l61 -71h18l61 71h82 l-107 -129h-92z" />
<glyph unicode="&#x10d;" horiz-adv-x="553" d="M423 152h85q-14 -75 -70 -120t-142 -45q-115 0 -180 74.5t-65 190.5q0 117 65 191t180 74q87 0 141.5 -43.5t67.5 -115.5h-85q-27 85 -124 85q-81 0 -120.5 -53.5t-39.5 -135.5q0 -83 40 -138t120 -55q106 0 127 91zM248 582l-107 145h80l65 -86h18l64 86h79l-108 -145 h-91z" />
<glyph unicode="&#x10e;" horiz-adv-x="743" d="M358 714q161 0 245.5 -96t84.5 -261t-85 -261t-245 -96h-267v714h267zM358 82q123 0 181 76.5t58 198.5t-58 198.5t-181 76.5h-177v-550h177zM292 767l-107 129h84l61 -71h18l61 71h82l-107 -129h-92z" />
<glyph unicode="&#x10f;" horiz-adv-x="698" d="M671 627h-46v100h102v-117l-53 -74h-56l53 74v17zM448 727h85v-727h-82v55h-20q-54 -68 -156 -68q-103 0 -163.5 75t-60.5 190q0 116 60.5 190.5t163.5 74.5q100 0 153 -68h20v278zM291 61q79 0 118.5 55t39.5 136t-39.5 136t-118.5 55q-75 0 -115 -52t-40 -139t40 -139 t115 -52z" />
<glyph unicode="&#x110;" horiz-adv-x="749" d="M20 332v74h77v308h267q161 0 245.5 -96t84.5 -261t-85 -261t-245 -96h-267v332h-77zM364 82q123 0 181 76.5t58 198.5t-58 198.5t-181 76.5h-177v-226h234v-74h-234v-250h177z" />
<glyph unicode="&#x111;" horiz-adv-x="624" d="M533 0h-82v55h-20q-54 -68 -156 -68q-103 0 -163.5 75t-60.5 190q0 116 60.5 190.5t163.5 74.5q100 0 153 -68h20v129h-162v61h162v88h85v-88h79v-61h-79v-578zM291 61q79 0 118.5 55t39.5 136t-39.5 136t-118.5 55q-75 0 -115 -52t-40 -139t40 -139t115 -52z" />
<glyph unicode="&#x112;" horiz-adv-x="652" d="M181 82h423v-82h-513v714h497v-82h-407v-221h328v-82h-328v-247zM488 809h-282v64h282v-64z" />
<glyph unicode="&#x113;" horiz-adv-x="569" d="M519 282v-29h-384q2 -91 43 -141.5t118 -50.5q104 0 128 78h86q-13 -68 -68.5 -110t-145.5 -42q-115 0 -180 75.5t-65 194.5q0 118 65 189t178 71q106 0 164.5 -68t60.5 -167zM292 443q-65 0 -103.5 -33.5t-48.5 -85.5h291q-5 50 -41.5 84.5t-97.5 34.5zM438 639h-282v64 h282v-64z" />
<glyph unicode="&#x116;" horiz-adv-x="652" d="M181 82h423v-82h-513v714h497v-82h-407v-221h328v-82h-328v-247zM396 796h-98v100h98v-100z" />
<glyph unicode="&#x117;" horiz-adv-x="569" d="M519 282v-29h-384q2 -91 43 -141.5t118 -50.5q104 0 128 78h86q-13 -68 -68.5 -110t-145.5 -42q-115 0 -180 75.5t-65 194.5q0 118 65 189t178 71q106 0 164.5 -68t60.5 -167zM292 443q-65 0 -103.5 -33.5t-48.5 -85.5h291q-5 50 -41.5 84.5t-97.5 34.5zM344 627h-98v100 h98v-100z" />
<glyph unicode="&#x118;" horiz-adv-x="652" d="M181 82h423v-82q-31 -16 -51.5 -40.5t-20.5 -49.5t19.5 -38.5t54.5 -13.5v-58h-21q-58 0 -91 25t-33 70q0 31 21 60t52 45h-443v714h497v-82h-407v-221h328v-82h-328v-247z" />
<glyph unicode="&#x119;" horiz-adv-x="569" d="M519 282v-29h-384q2 -91 43 -141.5t118 -50.5q104 0 128 78h86q-15 -88 -112 -134q-76 -36 -76 -93q0 -25 20 -39.5t54 -14.5v-58h-21q-58 0 -91 25t-33 70q0 55 55 92h-10q-115 0 -180 75.5t-65 194.5q0 118 65 189t178 71q106 0 164.5 -68t60.5 -167zM292 443 q-65 0 -103.5 -33.5t-48.5 -85.5h291q-5 50 -41.5 84.5t-97.5 34.5z" />
<glyph unicode="&#x11a;" horiz-adv-x="652" d="M181 82h423v-82h-513v714h497v-82h-407v-221h328v-82h-328v-247zM302 767l-107 129h84l61 -71h18l61 71h82l-107 -129h-92z" />
<glyph unicode="&#x11b;" horiz-adv-x="569" d="M519 282v-29h-384q2 -91 43 -141.5t118 -50.5q104 0 128 78h86q-13 -68 -68.5 -110t-145.5 -42q-115 0 -180 75.5t-65 194.5q0 118 65 189t178 71q106 0 164.5 -68t60.5 -167zM292 443q-65 0 -103.5 -33.5t-48.5 -85.5h291q-5 50 -41.5 84.5t-97.5 34.5zM240 582 l-107 145h80l65 -86h18l64 86h79l-108 -145h-91z" />
<glyph unicode="&#x122;" horiz-adv-x="746" d="M373 379h313v-72q0 -64 -17 -119.5t-51.5 -101.5t-94 -72.5t-137.5 -26.5q-157 0 -244 104t-87 266q0 163 88 266.5t245 103.5q110 0 182.5 -53t93.5 -146h-94q-36 117 -182 117q-119 0 -180.5 -82t-61.5 -206q0 -79 24 -142.5t80 -104.5t137 -41q104 0 155.5 61.5 t51.5 155.5v13h-221v80zM387 -220h-57l55 62v17h-44v83h100v-100z" />
<glyph unicode="&#x123;" horiz-adv-x="616" d="M452 504h82v-479q0 -107 -63 -169.5t-172 -62.5q-97 0 -157 40t-71 114h84q19 -82 143 -82q76 0 113.5 43t37.5 121v41h-20q-51 -68 -150 -68q-103 0 -165 72.5t-62 184.5q0 113 62 185.5t165 72.5q101 0 153 -68h20v55zM292 76q77 0 118 53t41 130q0 78 -41 131t-118 53 q-73 0 -114 -50t-41 -134q0 -83 41.5 -133t113.5 -50zM307 736h57l-55 -62v-17h44v-83h-100v100z" />
<glyph unicode="&#x128;" horiz-adv-x="284" d="M97 714h90v-714h-90v714zM252 896h55q0 -129 -94 -129q-28 0 -55.5 16.5t-50.5 33t-39 16.5q-34 0 -34 -66h-55q0 129 94 129q28 0 55.5 -16.5t50.5 -33t39 -16.5q20 0 27 17t7 49z" />
<glyph unicode="&#x129;" horiz-adv-x="254" d="M236 720h54q0 -132 -93 -132q-28 0 -55.5 17.5t-50.5 35t-39 17.5q-35 0 -35 -70h-54q0 132 94 132q35 0 81 -35.5t64 -35.5q21 0 27.5 18t6.5 53zM169 504v-504h-85v504h85z" />
<glyph unicode="&#x12a;" horiz-adv-x="284" d="M97 714h90v-714h-90v714zM283 809h-282v64h282v-64z" />
<glyph unicode="&#x12b;" horiz-adv-x="254" d="M267 639h-282v64h282v-64zM169 504v-504h-85v504h85z" />
<glyph unicode="&#x12e;" horiz-adv-x="284" d="M97 714h90v-714q-31 -16 -51.5 -40.5t-20.5 -49.5t19.5 -38.5t54.5 -13.5v-58h-21q-58 0 -91 25t-33 70q0 31 21 60t52 45h-20v714z" />
<glyph unicode="&#x12f;" horiz-adv-x="254" d="M169 504v-504q-31 -16 -51.5 -40.5t-20.5 -49.5t19.5 -38.5t54.5 -13.5v-58h-21q-58 0 -91 25t-33 70q0 31 21 60t52 45h-15v504h85zM176 627h-98v100h98v-100z" />
<glyph unicode="&#x131;" horiz-adv-x="254" d="M169 504v-504h-85v504h85z" />
<glyph unicode="&#x136;" horiz-adv-x="718" d="M91 0v714h90v-355l367 355h110l-224 -225l251 -489h-96l-215 412h-20l-173 -166v-246h-90zM377 -220h-57l55 62v17h-44v83h100v-100z" />
<glyph unicode="&#x137;" horiz-adv-x="553" d="M540 0h-91l-145 274h-20l-117 -129v-145h-85v727h85v-477l238 254h101l-145 -156zM302 -220h-57l55 62v17h-44v83h100v-100z" />
<glyph unicode="&#x138;" horiz-adv-x="553" d="M540 0h-91l-145 274h-20l-117 -129v-145h-85v504h85v-254l238 254h101l-145 -156z" />
<glyph unicode="&#x139;" horiz-adv-x="623" d="M181 85h401v-85h-491v714h90v-629zM284 896l-109 -129h-78l85 129h102z" />
<glyph unicode="&#x13a;" horiz-adv-x="249" d="M82 727h85v-727h-85v727zM274 896l-109 -129h-78l85 129h102z" />
<glyph unicode="&#x13b;" horiz-adv-x="623" d="M181 85h401v-85h-491v714h90v-629zM334 -220h-57l55 62v17h-44v83h100v-100z" />
<glyph unicode="&#x13c;" horiz-adv-x="249" d="M82 727h85v-727h-85v727zM120 -220h-57l55 62v17h-44v83h100v-100z" />
<glyph unicode="&#x13d;" horiz-adv-x="623" d="M181 85h401v-85h-491v714h90v-629zM415 614h-46v100h102v-117l-53 -74h-56l53 74v17z" />
<glyph unicode="&#x13e;" horiz-adv-x="333" d="M82 727h85v-727h-85v727zM306 627h-46v100h102v-117l-53 -74h-56l53 74v17z" />
<glyph unicode="&#x141;" horiz-adv-x="641" d="M199 85h401v-85h-491v309l-89 -36v78l89 36v327h90v-291l174 70v-77l-174 -71v-260z" />
<glyph unicode="&#x142;" horiz-adv-x="337" d="M27 267v81l99 45v334h85v-296l99 45v-81l-99 -45v-350h-85v312z" />
<glyph unicode="&#x143;" horiz-adv-x="766" d="M587 714h88v-714h-140l-336 597h-20v-597h-88v714h140l336 -597h20v597zM524 896l-109 -129h-78l85 129h102z" />
<glyph unicode="&#x144;" horiz-adv-x="604" d="M332 517q93 0 145.5 -54t52.5 -146v-317h-85v302q0 139 -129 139q-66 0 -107.5 -49.5t-41.5 -117.5v-274h-85v504h82v-55h19q21 30 60 49t89 19zM449 727l-109 -145h-77l86 145h100z" />
<glyph unicode="&#x145;" horiz-adv-x="766" d="M587 714h88v-714h-140l-336 597h-20v-597h-88v714h140l336 -597h20v597zM373 -220h-57l55 62v17h-44v83h100v-100z" />
<glyph unicode="&#x146;" horiz-adv-x="604" d="M332 517q93 0 145.5 -54t52.5 -146v-317h-85v302q0 139 -129 139q-66 0 -107.5 -49.5t-41.5 -117.5v-274h-85v504h82v-55h19q21 30 60 49t89 19zM302 -220h-57l55 62v17h-44v83h100v-100z" />
<glyph unicode="&#x147;" horiz-adv-x="766" d="M587 714h88v-714h-140l-336 597h-20v-597h-88v714h140l336 -597h20v597zM337 767l-107 129h84l61 -71h18l61 71h82l-107 -129h-92z" />
<glyph unicode="&#x148;" horiz-adv-x="604" d="M332 517q93 0 145.5 -54t52.5 -146v-317h-85v302q0 139 -129 139q-66 0 -107.5 -49.5t-41.5 -117.5v-274h-85v504h82v-55h19q21 30 60 49t89 19zM259 582l-107 145h80l65 -86h18l64 86h79l-108 -145h-91z" />
<glyph unicode="&#x14a;" horiz-adv-x="766" d="M675 714v-685q0 -108 -58 -168t-160 -61h-50v78h48q120 0 133 122h-53l-336 597h-20v-597h-88v714h140l336 -597h20v597h88z" />
<glyph unicode="&#x14b;" horiz-adv-x="604" d="M332 517q93 0 145.5 -54t52.5 -146v-344q0 -82 -42.5 -127.5t-119.5 -45.5h-63v74h46q50 0 72 25.5t22 76.5v326q0 139 -129 139q-66 0 -107.5 -49.5t-41.5 -117.5v-274h-85v504h82v-55h19q21 30 60 49t89 19z" />
<glyph unicode="&#x14c;" horiz-adv-x="776" d="M388 727q157 0 245 -104.5t88 -265.5t-88 -265.5t-245 -104.5q-158 0 -245.5 104.5t-87.5 265.5t87.5 265.5t245.5 104.5zM388 69q120 0 181 82.5t61 205.5t-61 205.5t-181 82.5t-181 -82.5t-61 -205.5t61 -205.5t181 -82.5zM529 809h-282v64h282v-64z" />
<glyph unicode="&#x14d;" horiz-adv-x="598" d="M299 517q115 0 181.5 -74.5t66.5 -190.5t-66.5 -190.5t-181.5 -74.5t-181.5 74.5t-66.5 190.5t66.5 190.5t181.5 74.5zM299 61q79 0 121 55.5t42 135.5t-42 135.5t-121 55.5t-121 -55.5t-42 -135.5t42 -135.5t121 -55.5zM440 639h-282v64h282v-64z" />
<glyph unicode="&#x150;" horiz-adv-x="776" d="M388 727q157 0 245 -104.5t88 -265.5t-88 -265.5t-245 -104.5q-158 0 -245.5 104.5t-87.5 265.5t87.5 265.5t245.5 104.5zM388 69q120 0 181 82.5t61 205.5t-61 205.5t-181 82.5t-181 -82.5t-61 -205.5t61 -205.5t181 -82.5zM440 896l-99 -129h-74l77 129h96zM602 896 l-100 -129h-73l77 129h96z" />
<glyph unicode="&#x151;" horiz-adv-x="598" d="M299 517q115 0 181.5 -74.5t66.5 -190.5t-66.5 -190.5t-181.5 -74.5t-181.5 74.5t-66.5 190.5t66.5 190.5t181.5 74.5zM299 61q79 0 121 55.5t42 135.5t-42 135.5t-121 55.5t-121 -55.5t-42 -135.5t42 -135.5t121 -55.5zM346 727l-98 -145h-72l76 145h94zM504 727 l-99 -145h-71l76 145h94z" />
<glyph unicode="&#x152;" horiz-adv-x="1085" d="M665 82h372v-82h-462v51h-20q-64 -64 -175 -64q-151 0 -238 103.5t-87 266.5t87 266.5t238 103.5q112 0 175 -63h20v50h447v-82h-357v-221h277v-82h-277v-247zM386 69q72 0 120 31t69 79v357q-20 47 -68.5 78t-120.5 31q-119 0 -179.5 -83t-60.5 -205t60.5 -205 t179.5 -83z" />
<glyph unicode="&#x153;" horiz-adv-x="966" d="M916 253h-376q1 -88 41 -140t115 -52q100 0 127 78h86q-13 -68 -68 -110t-145 -42q-123 0 -188 98h-21q-64 -98 -192 -98q-113 0 -178.5 75t-65.5 190t65.5 190t178.5 75q124 0 191 -95h22q62 95 189 95q103 0 161 -68.5t58 -166.5v-29zM295 61q78 0 119 55.5t41 135.5 t-41 135.5t-119 55.5q-77 0 -118 -55.5t-41 -135.5t41 -135.5t118 -55.5zM694 443q-64 0 -101.5 -33t-48.5 -86h284q-4 51 -39 85t-95 34z" />
<glyph unicode="&#x154;" horiz-adv-x="709" d="M407 714q112 0 173.5 -55t61.5 -153q0 -134 -109 -183l114 -323h-93l-107 302q-28 -3 -58 -3h-208v-299h-90v714h316zM394 379q157 0 157 127q0 63 -37 95.5t-120 32.5h-213v-255h213zM463 896l-109 -129h-78l85 129h102z" />
<glyph unicode="&#x155;" horiz-adv-x="399" d="M365 504v-80h-39q-75 0 -117 -45t-42 -127v-252h-85v504h82v-61h20q49 61 146 61h35zM339 727l-109 -145h-77l86 145h100z" />
<glyph unicode="&#x156;" horiz-adv-x="709" d="M407 714q112 0 173.5 -55t61.5 -153q0 -134 -109 -183l114 -323h-93l-107 302q-28 -3 -58 -3h-208v-299h-90v714h316zM394 379q157 0 157 127q0 63 -37 95.5t-120 32.5h-213v-255h213zM350 -220h-57l55 62v17h-44v83h100v-100z" />
<glyph unicode="&#x157;" horiz-adv-x="399" d="M365 504v-80h-39q-75 0 -117 -45t-42 -127v-252h-85v504h82v-61h20q49 61 146 61h35zM124 -220h-57l55 62v17h-44v83h100v-100z" />
<glyph unicode="&#x158;" horiz-adv-x="709" d="M407 714q112 0 173.5 -55t61.5 -153q0 -134 -109 -183l114 -323h-93l-107 302q-28 -3 -58 -3h-208v-299h-90v714h316zM394 379q157 0 157 127q0 63 -37 95.5t-120 32.5h-213v-255h213zM302 767l-107 129h84l61 -71h18l61 71h82l-107 -129h-92z" />
<glyph unicode="&#x159;" horiz-adv-x="399" d="M365 504v-80h-39q-75 0 -117 -45t-42 -127v-252h-85v504h82v-61h20q49 61 146 61h35zM175 582l-107 145h80l65 -86h18l64 86h79l-108 -145h-91z" />
<glyph unicode="&#x15a;" horiz-adv-x="664" d="M291 427q97 -19 135 -27q86 -19 132.5 -66.5t46.5 -134.5q0 -90 -70.5 -151t-199.5 -61q-123 0 -200.5 58.5t-86.5 153.5h91q23 -130 200 -130q77 0 126 34t49 94q0 53 -31.5 81.5t-89.5 40.5q-28 6 -141 29q-173 35 -173 181q0 86 67 142t184 56q109 0 178 -52.5 t81 -140.5h-91q-27 111 -170 111q-68 0 -113 -30t-45 -84q0 -47 32.5 -69.5t88.5 -34.5zM458 896l-109 -129h-78l85 129h102z" />
<glyph unicode="&#x15b;" horiz-adv-x="514" d="M226 312l97 -17q148 -26 148 -151q0 -65 -55 -111t-152 -46q-103 0 -158.5 41.5t-65.5 116.5h85q16 -84 135 -84q58 0 92 20.5t34 60.5q0 34 -21.5 52.5t-71.5 27.5l-101 18q-131 24 -131 128q0 66 51 107.5t147 41.5q86 0 138 -39t60 -105h-84q-4 34 -38 52t-81 18 q-48 0 -78 -17.5t-30 -50.5q0 -28 18.5 -41.5t61.5 -21.5zM387 727l-109 -145h-77l86 145h100z" />
<glyph unicode="&#x15e;" horiz-adv-x="664" d="M291 427q97 -19 135 -27q86 -19 132.5 -66.5t46.5 -134.5q0 -90 -70.5 -151t-199.5 -61h-5l-18 -47h13q11 8 31 8q28 0 48 -22t20 -56q0 -35 -24 -60t-71 -25q-40 0 -63.5 20.5t-25.5 48.5h54q7 -24 36 -24q17 0 27 10.5t10 27.5t-10 27t-26 10q-18 0 -31 -11h-52l37 96 q-102 11 -165.5 67.5t-71.5 141.5h91q23 -130 200 -130q77 0 126 34t49 94q0 53 -31.5 81.5t-89.5 40.5q-28 6 -141 29q-173 35 -173 181q0 86 67 142t184 56q109 0 178 -52.5t81 -140.5h-91q-27 111 -170 111q-68 0 -113 -30t-45 -84q0 -47 32.5 -69.5t88.5 -34.5z" />
<glyph unicode="&#x15f;" horiz-adv-x="514" d="M226 312l97 -17q148 -26 148 -151q0 -65 -55 -111t-152 -46h-10l-18 -47h13q11 8 31 8q28 0 48 -22t20 -56q0 -35 -24 -60t-71 -25q-40 0 -63.5 20.5t-25.5 48.5h54q7 -24 36 -24q17 0 27 10.5t10 27.5t-10 27t-26 10q-18 0 -31 -11h-52l38 97q-152 19 -170 154h85 q16 -84 135 -84q58 0 92 20.5t34 60.5q0 34 -21.5 52.5t-71.5 27.5l-101 18q-131 24 -131 128q0 66 51 107.5t147 41.5q86 0 138 -39t60 -105h-84q-4 34 -38 52t-81 18q-48 0 -78 -17.5t-30 -50.5q0 -27 18.5 -40.5t61.5 -22.5z" />
<glyph unicode="&#x160;" horiz-adv-x="664" d="M291 427q97 -19 135 -27q86 -19 132.5 -66.5t46.5 -134.5q0 -90 -70.5 -151t-199.5 -61q-123 0 -200.5 58.5t-86.5 153.5h91q23 -130 200 -130q77 0 126 34t49 94q0 53 -31.5 81.5t-89.5 40.5q-28 6 -141 29q-173 35 -173 181q0 86 67 142t184 56q109 0 178 -52.5 t81 -140.5h-91q-27 111 -170 111q-68 0 -113 -30t-45 -84q0 -47 32.5 -69.5t88.5 -34.5zM283 767l-107 129h84l61 -71h18l61 71h82l-107 -129h-92z" />
<glyph unicode="&#x161;" horiz-adv-x="514" d="M226 312l97 -17q148 -26 148 -151q0 -65 -55 -111t-152 -46q-103 0 -158.5 41.5t-65.5 116.5h85q16 -84 135 -84q58 0 92 20.5t34 60.5q0 34 -21.5 52.5t-71.5 27.5l-101 18q-131 24 -131 128q0 66 51 107.5t147 41.5q86 0 138 -39t60 -105h-84q-4 34 -38 52t-81 18 q-48 0 -78 -17.5t-30 -50.5q0 -28 18.5 -41.5t61.5 -21.5zM213 582l-107 145h80l65 -86h18l64 86h79l-108 -145h-91z" />
<glyph unicode="&#x162;" horiz-adv-x="597" d="M578 714v-80h-234v-634h-90v634h-236v80h560zM295 -220h-57l55 62v17h-44v83h100v-100z" />
<glyph unicode="&#x163;" horiz-adv-x="408" d="M214 504h136v-74h-136v-279q0 -39 20 -57t69 -18h47v-76h-53q-87 0 -127.5 29t-40.5 105v296h-102v74h102v152h85v-152zM230 -220h-57l55 62v17h-44v83h100v-100z" />
<glyph unicode="&#x164;" horiz-adv-x="597" d="M578 714v-80h-234v-634h-90v634h-236v80h560zM252 767l-107 129h84l61 -71h18l61 71h82l-107 -129h-92z" />
<glyph unicode="&#x165;" horiz-adv-x="433" d="M394 645h-46v100h102v-117l-53 -74h-56l53 74v17zM214 504h136v-74h-136v-279q0 -39 20 -57t69 -18h47v-76h-53q-87 0 -127.5 29t-40.5 105v296h-102v74h102v152h85v-152z" />
<glyph unicode="&#x166;" horiz-adv-x="597" d="M578 714v-80h-234v-228h160v-74h-160v-332h-90v332h-162v74h162v228h-236v80h560z" />
<glyph unicode="&#x167;" horiz-adv-x="408" d="M214 504h136v-74h-136v-106h136v-74h-136v-99q0 -39 20 -57t69 -18h47v-76h-53q-87 0 -127.5 29t-40.5 105v116h-102v74h102v106h-102v74h102v152h85v-152z" />
<glyph unicode="&#x168;" horiz-adv-x="740" d="M561 714h90v-459q0 -127 -73 -197.5t-208 -70.5t-208 70.5t-73 197.5v459h90v-458q0 -86 49.5 -136.5t141.5 -50.5t141.5 50.5t49.5 136.5v458zM479 896h55q0 -129 -94 -129q-28 0 -55.5 16.5t-50.5 33t-39 16.5q-34 0 -34 -66h-55q0 129 94 129q28 0 55.5 -16.5 t50.5 -33t39 -16.5q20 0 27 17t7 49z" />
<glyph unicode="&#x169;" horiz-adv-x="601" d="M270 -13q-93 0 -144.5 54t-51.5 146v317h85v-302q0 -139 127 -139q65 0 106.5 49.5t41.5 117.5v274h85v-504h-82v55h-19q-21 -30 -59.5 -49t-88.5 -19zM405 720h54q0 -132 -93 -132q-28 0 -55.5 17.5t-50.5 35t-39 17.5q-35 0 -35 -70h-54q0 132 94 132q28 0 55.5 -18 t50.5 -35.5t39 -17.5q21 0 27.5 18t6.5 53z" />
<glyph unicode="&#x16a;" horiz-adv-x="740" d="M561 714h90v-459q0 -127 -73 -197.5t-208 -70.5t-208 70.5t-73 197.5v459h90v-458q0 -86 49.5 -136.5t141.5 -50.5t141.5 50.5t49.5 136.5v458zM511 809h-282v64h282v-64z" />
<glyph unicode="&#x16b;" horiz-adv-x="601" d="M270 -13q-93 0 -144.5 54t-51.5 146v317h85v-302q0 -139 127 -139q65 0 106.5 49.5t41.5 117.5v274h85v-504h-82v55h-19q-21 -30 -59.5 -49t-88.5 -19zM437 639h-282v64h282v-64z" />
<glyph unicode="&#x16e;" horiz-adv-x="740" d="M561 714h90v-459q0 -127 -73 -197.5t-208 -70.5t-208 70.5t-73 197.5v459h90v-458q0 -86 49.5 -136.5t141.5 -50.5t141.5 50.5t49.5 136.5v458zM370 970q45 0 77 -31.5t32 -76.5q0 -44 -32 -76t-77 -32t-77 32t-32 76q0 45 32 76.5t77 31.5zM370 807q23 0 39 16t16 39 q0 22 -16.5 38.5t-38.5 16.5t-38.5 -16.5t-16.5 -38.5q0 -23 16 -39t39 -16z" />
<glyph unicode="&#x16f;" horiz-adv-x="601" d="M270 -13q-93 0 -144.5 54t-51.5 146v317h85v-302q0 -139 127 -139q65 0 106.5 49.5t41.5 117.5v274h85v-504h-82v55h-19q-21 -30 -59.5 -49t-88.5 -19zM188 687q0 45 32 76.5t77 31.5t77 -31.5t32 -76.5t-32 -76.5t-77 -31.5t-77 31.5t-32 76.5zM242 687q0 -23 16 -39 t39 -16t39 16t16 39t-16 39t-39 16t-39 -16t-16 -39z" />
<glyph unicode="&#x170;" horiz-adv-x="740" d="M561 714h90v-459q0 -127 -73 -197.5t-208 -70.5t-208 70.5t-73 197.5v459h90v-458q0 -86 49.5 -136.5t141.5 -50.5t141.5 50.5t49.5 136.5v458zM410 896l-99 -129h-74l77 129h96zM572 896l-100 -129h-73l77 129h96z" />
<glyph unicode="&#x171;" horiz-adv-x="601" d="M270 -13q-93 0 -144.5 54t-51.5 146v317h85v-302q0 -139 127 -139q65 0 106.5 49.5t41.5 117.5v274h85v-504h-82v55h-19q-21 -30 -59.5 -49t-88.5 -19zM326 727l-98 -145h-72l76 145h94zM484 727l-99 -145h-71l76 145h94z" />
<glyph unicode="&#x172;" horiz-adv-x="740" d="M561 714h90v-459q0 -183 -151 -246q-99 -41 -99 -99q0 -25 19.5 -38.5t54.5 -13.5v-58h-21q-58 0 -91 25t-33 70q0 52 54 92h-14q-135 0 -208 70.5t-73 197.5v459h90v-458q0 -86 49.5 -136.5t141.5 -50.5t141.5 50.5t49.5 136.5v458z" />
<glyph unicode="&#x173;" horiz-adv-x="601" d="M437 0v55h-19q-21 -30 -59.5 -49t-88.5 -19q-93 0 -144.5 54t-51.5 146v317h85v-302q0 -139 127 -139q65 0 106.5 49.5t41.5 117.5v274h85v-504q-31 -16 -51.5 -40.5t-20.5 -49.5t19.5 -38.5t54.5 -13.5v-58h-21q-58 0 -91 25t-33 70q0 30 17 58.5t44 46.5z" />
<glyph unicode="&#x178;" horiz-adv-x="643" d="M307 389h28l191 325h97l-257 -441v-273h-90v273l-257 441h97zM277 796h-92v100h92v-100zM458 796h-92v100h92v-100z" />
<glyph unicode="&#x179;" horiz-adv-x="645" d="M582 714v-101l-423 -511v-20h437v-82h-548v102l424 510v20h-397v82h507zM464 896l-109 -129h-78l85 129h102z" />
<glyph unicode="&#x17a;" horiz-adv-x="515" d="M467 0h-419v94l306 317v19h-289v74h399v-93l-305 -317v-20h308v-74zM391 727l-109 -145h-77l86 145h100z" />
<glyph unicode="&#x17b;" horiz-adv-x="645" d="M582 714v-101l-423 -511v-20h437v-82h-548v102l424 510v20h-397v82h507zM372 796h-98v100h98v-100z" />
<glyph unicode="&#x17c;" horiz-adv-x="515" d="M467 0h-419v94l306 317v19h-289v74h399v-93l-305 -317v-20h308v-74zM307 627h-98v100h98v-100z" />
<glyph unicode="&#x17d;" horiz-adv-x="645" d="M582 714v-101l-423 -511v-20h437v-82h-548v102l424 510v20h-397v82h507zM277 767l-107 129h84l61 -71h18l61 71h82l-107 -129h-92z" />
<glyph unicode="&#x17e;" horiz-adv-x="515" d="M467 0h-419v94l306 317v19h-289v74h399v-93l-305 -317v-20h308v-74zM222 582l-107 145h80l65 -86h18l64 86h79l-108 -145h-91z" />
<glyph unicode="&#x192;" horiz-adv-x="432" d="M135 -200h-85l98 555h-94v71h106l22 125q16 93 65.5 134.5t135.5 41.5h39v-74h-41q-95 0 -115 -114l-21 -113h121v-71h-133z" />
<glyph unicode="&#x2c6;" horiz-adv-x="378" d="M235 727l107 -145h-80l-65 86h-18l-64 -86h-79l108 145h91z" />
<glyph unicode="&#x2c7;" horiz-adv-x="378" d="M143 582l-107 145h80l65 -86h18l64 86h79l-108 -145h-91z" />
<glyph unicode="&#x2d8;" horiz-adv-x="357" d="M251 727h66q0 -68 -36.5 -106.5t-101.5 -38.5t-102 38.5t-37 106.5h65q0 -39 18.5 -61.5t54.5 -22.5t54.5 22.5t18.5 61.5z" />
<glyph unicode="&#x2d9;" horiz-adv-x="170" d="M134 627h-98v100h98v-100z" />
<glyph unicode="&#x2da;" horiz-adv-x="298" d="M40 687q0 45 32 76.5t77 31.5t77 -31.5t32 -76.5t-32 -76.5t-77 -31.5t-77 31.5t-32 76.5zM94 687q0 -23 16 -39t39 -16t39 16t16 39t-16 39t-39 16t-39 -16t-16 -39z" />
<glyph unicode="&#x2db;" horiz-adv-x="224" d="M115 7l54 -7q-31 -16 -51.5 -40.5t-20.5 -49.5t19.5 -38.5t54.5 -13.5v-58h-21q-58 0 -91 25t-33 70q0 36 26 68.5t63 43.5z" />
<glyph unicode="&#x2dc;" horiz-adv-x="407" d="M313 720h54q0 -132 -93 -132q-28 0 -55.5 17.5t-50.5 35t-39 17.5q-35 0 -35 -70h-54q0 132 94 132q28 0 55.5 -18t50.5 -35.5t39 -17.5q21 0 27.5 18t6.5 53z" />
<glyph unicode="&#x2dd;" horiz-adv-x="406" d="M209 727l-98 -145h-72l76 145h94zM367 727l-99 -145h-71l76 145h94z" />
<glyph unicode="&#x3a9;" horiz-adv-x="758" d="M569 98v-20h132v-78h-275v76q186 114 186 302q0 122 -64 194.5t-169 72.5q-106 0 -169.5 -72.5t-63.5 -194.5q0 -187 185 -302v-76h-275v78h133v20q-134 116 -134 284q0 153 88.5 249t235.5 96t235.5 -96t88.5 -249q0 -168 -134 -284z" />
<glyph unicode="&#x3c0;" horiz-adv-x="615" d="M565 0h-36q-77 0 -109 37t-32 107v286h-196v-430h-85v430h-80v74h538v-74h-92v-284q0 -72 57 -72h35v-74z" />
<glyph unicode="&#x401;" horiz-adv-x="652" d="M181 82h423v-82h-513v714h497v-82h-407v-221h328v-82h-328v-247zM290 796h-92v100h92v-100zM471 796h-92v100h92v-100z" />
<glyph unicode="&#x402;" horiz-adv-x="799" d="M747 204q0 -102 -61 -159.5t-173 -57.5q-36 0 -53 4v82q18 -4 43 -4q154 0 154 136q0 67 -42.5 102.5t-146.5 35.5q-81 0 -162 -19v-324h-90v634h-198v80h544v-80h-256v-229q88 18 177 18q137 0 200.5 -60t63.5 -159z" />
<glyph unicode="&#x403;" horiz-adv-x="623" d="M453 896l-109 -129h-78l85 129h102zM579 632h-398v-632h-90v714h488v-82z" />
<glyph unicode="&#x404;" horiz-adv-x="717" d="M572 194h95q-20 -93 -95 -150t-188 -57q-154 0 -241.5 104t-87.5 266q0 163 87 266.5t242 103.5q106 0 179 -52t96 -142h-95q-41 113 -181 113q-105 0 -163.5 -67t-69.5 -172h334v-80h-335q5 -112 64.5 -185.5t170.5 -73.5q73 0 122 33.5t66 92.5z" />
<glyph unicode="&#x405;" horiz-adv-x="664" d="M291 427q97 -19 135 -27q86 -19 132.5 -66.5t46.5 -134.5q0 -90 -70.5 -151t-199.5 -61q-123 0 -200.5 58.5t-86.5 153.5h91q23 -130 200 -130q77 0 126 34t49 94q0 53 -31.5 81.5t-89.5 40.5q-28 6 -141 29q-173 35 -173 181q0 86 67 142t184 56q109 0 178 -52.5 t81 -140.5h-91q-27 111 -170 111q-68 0 -113 -30t-45 -84q0 -47 32.5 -69.5t88.5 -34.5z" />
<glyph unicode="&#x406;" horiz-adv-x="284" d="M97 714h90v-714h-90v714z" />
<glyph unicode="&#x407;" horiz-adv-x="284" d="M97 714h90v-714h-90v714zM98 796h-92v100h92v-100zM279 796h-92v100h92v-100z" />
<glyph unicode="&#x408;" horiz-adv-x="582" d="M268 -13q-99 0 -161 60t-69 168h90q6 -72 43 -109t99 -37t97.5 39.5t35.5 118.5v487h90v-486q0 -113 -60 -177t-165 -64z" />
<glyph unicode="&#x409;" horiz-adv-x="1125" d="M825 0h-296v632h-278v-197q0 -174 -23.5 -269.5t-69 -130.5t-125.5 -35h-20v89h19q49 0 76 25t42.5 101.5t15.5 220.5v278h453v-273h206q118 0 183 -58.5t65 -161.5q0 -104 -65 -162.5t-183 -58.5zM809 80q173 0 173 141q0 140 -173 140h-190v-281h190z" />
<glyph unicode="&#x40a;" horiz-adv-x="1157" d="M863 0h-293v336h-389v-336h-90v714h90v-294h389v294h90v-287h203q115 0 178.5 -56t63.5 -157q0 -100 -63.5 -157t-178.5 -57zM850 80q87 0 125.5 34.5t38.5 99.5q0 133 -164 133h-190v-267h190z" />
<glyph unicode="&#x40b;" horiz-adv-x="805" d="M747 0h-90v198q0 28 -1.5 42.5t-10.5 37t-27 34t-53.5 20.5t-87.5 9q-86 0 -171 -20v-321h-90v634h-198v80h544v-80h-256v-230q86 19 182 19q52 0 92.5 -7t67.5 -17.5t46 -29t29.5 -35.5t16 -43t6.5 -44.5t1 -47.5v-199z" />
<glyph unicode="&#x40c;" horiz-adv-x="689" d="M91 0v714h90v-305h211l148 305h95l-165 -347l174 -367h-95l-157 327h-211v-327h-90zM476 896l-109 -129h-78l85 129h102z" />
<glyph unicode="&#x40e;" horiz-adv-x="637" d="M313 339h28l179 375h94l-341 -714h-93l102 214l-264 500h97zM414 904h73q-1 -73 -50 -114t-125 -41q-75 0 -123.5 41.5t-49.5 113.5h73q1 -41 28.5 -65.5t71.5 -24.5q45 0 73 24.5t29 65.5z" />
<glyph unicode="&#x40f;" horiz-adv-x="750" d="M330 -175v175h-239v714h90v-632h388v632h90v-714h-239v-175h-90z" />
<glyph unicode="&#x410;" horiz-adv-x="687" d="M573 0l-74 219h-313l-74 -219h-92l247 714h152l248 -714h-94zM322 622l-109 -321h258l-109 321h-40z" />
<glyph unicode="&#x411;" horiz-adv-x="687" d="M396 424q114 0 176.5 -56t62.5 -156t-62.5 -156t-176.5 -56h-305v714h489v-82h-399v-208h215zM381 80q164 0 164 133q0 65 -38.5 98.5t-125.5 33.5h-200v-265h200z" />
<glyph unicode="&#x412;" horiz-adv-x="701" d="M551 367q45 -21 73 -66.5t28 -99.5q0 -89 -62.5 -145t-179.5 -56h-319v714h311q109 0 168.5 -51.5t59.5 -129.5q0 -103 -79 -146v-20zM181 634v-223h219q139 0 139 114q0 56 -40 82.5t-101 26.5h-217zM404 80q69 0 113 30t44 98q0 65 -43 94.5t-113 29.5h-224v-252h223z " />
<glyph unicode="&#x413;" horiz-adv-x="623" d="M579 632h-398v-632h-90v714h488v-82z" />
<glyph unicode="&#x414;" horiz-adv-x="758" d="M628 82h103v-257h-89v175h-541v-175h-89v257h74q90 190 90 488v144h452v-632zM539 82v550h-277v-77q0 -290 -80 -473h357z" />
<glyph unicode="&#x415;" horiz-adv-x="652" d="M181 82h423v-82h-513v714h497v-82h-407v-221h328v-82h-328v-247z" />
<glyph unicode="&#x416;" horiz-adv-x="1026" d="M738 322h-180v-322h-89v322h-181l-137 -322h-95l155 362l-146 352h95l128 -310h181v310h89v-310h180l129 310h95l-147 -352l156 -362h-95z" />
<glyph unicode="&#x417;" horiz-adv-x="659" d="M491 527q0 56 -43.5 87t-111.5 31q-141 0 -167 -112h-92q11 90 80 142t179 52q116 0 181 -54t65 -135q0 -105 -76 -146v-20q104 -44 104 -171q0 -90 -71.5 -152t-197.5 -62q-128 0 -203 55.5t-91 153.5h94q33 -127 201 -127q79 0 127.5 36t48.5 98q0 128 -163 128h-114 v82h115q71 0 103 32t32 82z" />
<glyph unicode="&#x418;" horiz-adv-x="765" d="M91 714h88v-605h20l336 605h139v-714h-88v605h-20l-336 -605h-139v714z" />
<glyph unicode="&#x419;" horiz-adv-x="765" d="M91 714h88v-605h20l336 605h139v-714h-88v605h-20l-336 -605h-139v714zM484 904h73q-1 -73 -50 -114t-125 -41q-75 0 -123.5 41.5t-49.5 113.5h73q1 -41 28.5 -65.5t71.5 -24.5q45 0 73 24.5t29 65.5z" />
<glyph unicode="&#x41a;" horiz-adv-x="677" d="M91 0v714h90v-305h211l148 305h95l-165 -347l174 -367h-95l-157 327h-211v-327h-90z" />
<glyph unicode="&#x41b;" horiz-adv-x="726" d="M13 89h19q51 0 77.5 26t41.5 105.5t15 231.5v262h469v-714h-90v632h-294v-197q0 -174 -23.5 -269.5t-69 -130.5t-125.5 -35h-20v89z" />
<glyph unicode="&#x41c;" horiz-adv-x="862" d="M91 0v714h148l183 -335h20l180 335h149v-714h-88v612h-20l-186 -339h-92l-186 339h-20v-612h-88z" />
<glyph unicode="&#x41d;" horiz-adv-x="761" d="M580 714h90v-714h-90v326h-399v-326h-90v714h90v-304h399v304z" />
<glyph unicode="&#x41e;" horiz-adv-x="776" d="M388 727q157 0 245 -104.5t88 -265.5t-88 -265.5t-245 -104.5q-158 0 -245.5 104.5t-87.5 265.5t87.5 265.5t245.5 104.5zM388 69q120 0 181 82.5t61 205.5t-61 205.5t-181 82.5t-181 -82.5t-61 -205.5t61 -205.5t181 -82.5z" />
<glyph unicode="&#x41f;" horiz-adv-x="754" d="M91 714h572v-714h-90v632h-392v-632h-90v714z" />
<glyph unicode="&#x420;" horiz-adv-x="687" d="M393 714q115 0 178.5 -56.5t63.5 -156.5q0 -101 -63.5 -158t-178.5 -57h-212v-286h-90v714h302zM378 366q166 0 166 134t-166 134h-197v-268h197z" />
<glyph unicode="&#x421;" horiz-adv-x="718" d="M573 203h95q-22 -98 -95.5 -157t-187.5 -59q-155 0 -242.5 103t-87.5 267t88 267t243 103q107 0 180 -54t94 -146h-95q-42 118 -179 118q-118 0 -179 -83t-61 -205q0 -123 60.5 -205.5t178.5 -82.5q74 0 122 35.5t66 98.5z" />
<glyph unicode="&#x422;" horiz-adv-x="597" d="M578 714v-80h-234v-634h-90v634h-236v80h560z" />
<glyph unicode="&#x423;" horiz-adv-x="637" d="M313 339h28l179 375h94l-341 -714h-93l102 214l-264 500h97z" />
<glyph unicode="&#x424;" horiz-adv-x="852" d="M470 655h12q151 0 238.5 -74t87.5 -214q0 -142 -87 -215t-239 -73h-12v-92h-88v92h-12q-152 0 -239 73t-87 215q0 140 87.5 214t238.5 74h12v82h88v-82zM370 159h12v416h-12q-112 0 -174.5 -52t-62.5 -156t62.5 -156t174.5 -52zM470 159h12q111 0 174 52t63 156 t-62.5 156t-174.5 52h-12v-416z" />
<glyph unicode="&#x425;" horiz-adv-x="647" d="M522 0l-181 324h-35l-186 -324h-98l215 377l-184 337h97l157 -285h35l159 285h96l-186 -333l214 -381h-103z" />
<glyph unicode="&#x426;" horiz-adv-x="788" d="M672 -175v175h-581v714h90v-632h387v632h90v-632h103v-257h-89z" />
<glyph unicode="&#x427;" horiz-adv-x="680" d="M58 714h90v-204q0 -28 1.5 -42.5t10.5 -37t27 -34t53.5 -20.5t87.5 -9q86 0 171 20v327h90v-714h-90v304q-85 -19 -182 -19q-72 0 -122.5 14t-76.5 33t-40 52.5t-17 59t-3 66.5v204z" />
<glyph unicode="&#x428;" horiz-adv-x="1008" d="M460 82v632h88v-632h281v632h88v-714h-826v714h88v-632h281z" />
<glyph unicode="&#x429;" horiz-adv-x="1047" d="M931 -175v175h-840v714h88v-632h281v632h88v-632h281v632h88v-632h103v-257h-89z" />
<glyph unicode="&#x42a;" horiz-adv-x="781" d="M481 0h-296v632h-183v82h273v-273h206q118 0 183 -58.5t65 -161.5q0 -104 -65 -162.5t-183 -58.5zM465 80q173 0 173 141q0 140 -173 140h-190v-281h190z" />
<glyph unicode="&#x42b;" horiz-adv-x="899" d="M718 714h90v-714h-90v714zM358 80q173 0 173 141q0 140 -173 140h-177v-281h177zM374 0h-283v714h90v-273h193q118 0 183 -58.5t65 -161.5q0 -104 -65 -162.5t-183 -58.5z" />
<glyph unicode="&#x42c;" horiz-adv-x="687" d="M371 80q173 0 173 141q0 140 -173 140h-190v-281h190zM387 0h-296v714h90v-273h206q118 0 183 -58.5t65 -161.5q0 -104 -65 -162.5t-183 -58.5z" />
<glyph unicode="&#x42d;" horiz-adv-x="714" d="M47 194h95q17 -59 66 -92.5t122 -33.5q111 0 170.5 73.5t64.5 185.5h-335v80h334q-11 105 -69.5 172t-163.5 67q-140 0 -181 -113h-95q23 90 96 142t179 52q155 0 242 -103.5t87 -266.5q0 -162 -87.5 -266t-241.5 -104q-113 0 -188 57t-95 150z" />
<glyph unicode="&#x42e;" horiz-adv-x="1033" d="M653 727q154 0 239.5 -104.5t85.5 -265.5t-85.5 -265.5t-239.5 -104.5q-146 0 -230.5 94.5t-93.5 244.5h-148v-326h-90v714h90v-304h150q14 140 98 228.5t224 88.5zM653 68q59 0 105 24t73.5 65t41.5 91.5t14 108.5t-14 108.5t-41.5 91.5t-73.5 65t-105 24t-105 -24 t-73.5 -65t-41.5 -91.5t-14 -108.5t14 -108.5t41.5 -91.5t73.5 -65t105 -24z" />
<glyph unicode="&#x42f;" horiz-adv-x="713" d="M306 714h316v-714h-90v299h-208q-30 0 -58 3l-107 -302h-93l114 323q-109 49 -109 183q0 98 61.5 153t173.5 55zM319 379h213v255h-213q-83 0 -120 -32.5t-37 -95.5q0 -127 157 -127z" />
<glyph unicode="&#x430;" horiz-adv-x="557" d="M403 0v54h-20q-53 -67 -158 -67q-84 0 -133 48t-49 116q0 69 47.5 118t145.5 49h164v20q0 48 -30 76.5t-93 28.5q-54 0 -84 -19.5t-33 -53.5h-85q4 69 59 108t141 39q96 0 152 -45.5t56 -128.5v-343h-80zM245 61q64 0 109.5 41t45.5 100v45h-151q-121 0 -121 -94 q0 -43 31 -67.5t86 -24.5z" />
<glyph unicode="&#x431;" horiz-adv-x="602" d="M314 496q110 0 173.5 -71.5t63.5 -182.5q0 -112 -67 -183.5t-182 -71.5q-118 0 -184.5 79t-66.5 224q0 73 7 128t27 110.5t61.5 90.5t104.5 47l133 21q29 5 39 12t12 28h79q-3 -49 -23.5 -76.5t-77.5 -38.5q-16 -3 -51 -8.5t-67 -10.5t-35 -5q-64 -11 -92.5 -54 t-37.5 -112h19q57 74 165 74zM300 61q79 0 121.5 52.5t42.5 128.5t-42 128t-122 52t-122 -52t-42 -128t42.5 -128.5t121.5 -52.5z" />
<glyph unicode="&#x432;" horiz-adv-x="569" d="M436 257q37 -9 60 -40.5t23 -78.5q0 -68 -46 -103t-132 -35h-259v504h250q75 0 117 -33.5t42 -93.5q0 -35 -16 -61.5t-39 -38.5v-20zM336 72q98 0 98 75q0 76 -98 76h-170v-151h170zM166 432v-137h158q43 0 62.5 19t19.5 49q0 69 -82 69h-158z" />
<glyph unicode="&#x433;" horiz-adv-x="491" d="M82 0v504h378v-74h-293v-430h-85z" />
<glyph unicode="&#x434;" horiz-adv-x="652" d="M531 74h93v-217h-83v143h-436v-143h-83v217h67q64 134 64 292v138h378v-430zM446 74v356h-214v-64q0 -169 -57 -292h271z" />
<glyph unicode="&#x435;" horiz-adv-x="569" d="M519 282v-29h-384q2 -91 43 -141.5t118 -50.5q104 0 128 78h86q-13 -68 -68.5 -110t-145.5 -42q-115 0 -180 75.5t-65 194.5q0 118 65 189t178 71q106 0 164.5 -68t60.5 -167zM292 443q-65 0 -103.5 -33.5t-48.5 -85.5h291q-5 50 -41.5 84.5t-97.5 34.5z" />
<glyph unicode="&#x436;" horiz-adv-x="790" d="M230 221l-102 -221h-89l119 259l-112 245h88l96 -209h124v209h82v-209h124l96 209h88l-112 -245l120 -259h-90l-102 221h-124v-221h-82v221h-124z" />
<glyph unicode="&#x437;" horiz-adv-x="527" d="M371 366q0 37 -30.5 57t-80.5 20q-105 0 -122 -78h-81q7 71 62 111.5t143 40.5q91 0 142 -40t51 -100q0 -40 -16 -67.5t-39 -35.5v-20q31 -9 52 -38t21 -77q0 -64 -56 -108t-153 -44q-101 0 -158.5 41.5t-68.5 114.5h82q25 -82 145 -82q56 0 90 21t34 60t-25.5 58.5 t-85.5 19.5h-89v74h85q50 0 74 20t24 52z" />
<glyph unicode="&#x438;" horiz-adv-x="614" d="M200 0h-118v504h83v-390h20l225 390h122v-504h-83v390h-20z" />
<glyph unicode="&#x439;" horiz-adv-x="614" d="M200 0h-118v504h83v-390h20l225 390h122v-504h-83v390h-20zM392 724h69q-1 -69 -42.5 -107.5t-113.5 -38.5q-71 0 -112.5 38.5t-42.5 107.5h69q2 -85 86 -85t87 85z" />
<glyph unicode="&#x43a;" horiz-adv-x="560" d="M430 0l-117 222h-146v-222h-85v504h85v-208h148l110 208h89l-128 -243l135 -261h-91z" />
<glyph unicode="&#x43b;" horiz-adv-x="608" d="M25 0v80h17q53 0 76 49t23 180v195h386v-504h-86v430h-221v-123q0 -171 -41.5 -239t-136.5 -68h-17z" />
<glyph unicode="&#x43c;" horiz-adv-x="702" d="M82 0v504h133l127 -230h20l127 230h131v-504h-83v405h-20l-120 -216h-92l-120 216h-20v-405h-83z" />
<glyph unicode="&#x43d;" horiz-adv-x="613" d="M531 0h-85v222h-279v-222h-85v504h85v-208h279v208h85v-504z" />
<glyph unicode="&#x43e;" horiz-adv-x="598" d="M299 517q115 0 181.5 -74.5t66.5 -190.5t-66.5 -190.5t-181.5 -74.5t-181.5 74.5t-66.5 190.5t66.5 190.5t181.5 74.5zM299 61q79 0 121 55.5t42 135.5t-42 135.5t-121 55.5t-121 -55.5t-42 -135.5t42 -135.5t121 -55.5z" />
<glyph unicode="&#x43f;" horiz-adv-x="609" d="M527 0h-85v430h-275v-430h-85v504h445v-504z" />
<glyph unicode="&#x440;" horiz-adv-x="615" d="M167 -200h-85v704h82v-55h20q54 68 156 68q103 0 163.5 -75t60.5 -190q0 -116 -60.5 -190.5t-163.5 -74.5q-100 0 -153 68h-20v-255zM324 443q-79 0 -118.5 -55t-39.5 -136t39.5 -136t118.5 -55q75 0 115 52t40 139t-40 139t-115 52z" />
<glyph unicode="&#x441;" horiz-adv-x="553" d="M423 152h85q-14 -75 -70 -120t-142 -45q-115 0 -180 74.5t-65 190.5q0 117 65 191t180 74q87 0 141.5 -43.5t67.5 -115.5h-85q-27 85 -124 85q-81 0 -120.5 -53.5t-39.5 -135.5q0 -83 40 -138t120 -55q106 0 127 91z" />
<glyph unicode="&#x442;" horiz-adv-x="494" d="M30 430v74h434v-74h-174v-430h-85v430h-175z" />
<glyph unicode="&#x443;" horiz-adv-x="538" d="M218 -200h-87l103 245l-212 459h92l152 -332h25l140 332h91z" />
<glyph unicode="&#x444;" horiz-adv-x="715" d="M400 0v-200h-84v200h-16q-117 0 -183 70t-66 182t65.5 181.5t182.5 70.5h17v223h84v-223h16q117 -1 182.5 -70.5t65.5 -181.5q0 -118 -69 -185t-195 -67zM135 252q0 -78 42 -129t123 -51h16v360h-16q-80 0 -122.5 -51t-42.5 -129zM400 72h14q81 0 123.5 51t42.5 129 t-42.5 129t-123.5 51h-14v-360z" />
<glyph unicode="&#x445;" horiz-adv-x="551" d="M416 0l-126 211h-29l-129 -211h-96l158 258l-142 246h93l117 -200h29l119 200h92l-144 -243l157 -261h-99z" />
<glyph unicode="&#x446;" horiz-adv-x="643" d="M438 504h85v-430h92v-217h-82v143h-451v504h85v-430h271v430z" />
<glyph unicode="&#x447;" horiz-adv-x="559" d="M53 504h85v-142q0 -24 2.5 -37.5t13.5 -30.5t38.5 -25t72.5 -8q66 0 126 13v230h86v-504h-86v199q-65 -14 -144 -14q-53 0 -90.5 10.5t-57 25t-30.5 39.5t-13.5 45t-2.5 50v149z" />
<glyph unicode="&#x448;" horiz-adv-x="809" d="M644 504h83v-504h-645v504h83v-430h198v430h83v-430h198v430z" />
<glyph unicode="&#x449;" horiz-adv-x="848" d="M644 504h83v-430h93v-217h-83v143h-655v504h83v-430h198v430h83v-430h198v430z" />
<glyph unicode="&#x44a;" horiz-adv-x="633" d="M19 430v74h235v-168h149q91 0 141 -44.5t50 -122.5q0 -79 -50 -124t-141 -45h-234v430h-150zM392 74q116 0 116 95q0 47 -26.5 71t-89.5 24h-138v-190h138z" />
<glyph unicode="&#x44b;" horiz-adv-x="744" d="M82 504h85v-168h139q91 0 140.5 -44t49.5 -123t-49.5 -124t-140.5 -45h-224v504zM167 264v-190h127q117 0 117 95q0 47 -27 71t-90 24h-127zM577 504h85v-504h-85v504z" />
<glyph unicode="&#x44c;" horiz-adv-x="545" d="M167 504v-168h149q91 0 140.5 -44t49.5 -123t-49.5 -124t-140.5 -45h-234v504h85zM304 74q117 0 117 95q0 47 -27 71t-90 24h-137v-190h137z" />
<glyph unicode="&#x44d;" horiz-adv-x="560" d="M50 146h83q21 -85 135 -85q69 0 109 44t45 115h-227v72h226q-5 68 -44.5 109.5t-108.5 41.5q-107 0 -131 -79h-83q14 69 71 111t142 42q113 0 177.5 -73t64.5 -192t-65 -192t-178 -73q-85 0 -143.5 44t-72.5 115z" />
<glyph unicode="&#x44e;" horiz-adv-x="818" d="M523 517q112 0 178 -75.5t66 -189.5t-66 -189.5t-178 -75.5q-104 0 -168.5 65.5t-73.5 169.5h-115v-222h-84v504h84v-208h118q12 98 75.5 159.5t163.5 61.5zM523 61q77 0 118 55.5t41 135.5t-41 135.5t-118 55.5t-118 -55.5t-41 -135.5t41 -135.5t118 -55.5z" />
<glyph unicode="&#x44f;" horiz-adv-x="577" d="M245 504h251v-504h-86v199h-153q-21 0 -31 1l-76 -200h-89l85 219q-78 37 -78 132q0 72 46 112.5t131 40.5zM410 432h-156q-55 0 -78 -21t-23 -61q0 -39 23 -59t78 -20h156v161z" />
<glyph unicode="&#x451;" horiz-adv-x="569" d="M519 282v-29h-384q2 -91 43 -141.5t118 -50.5q104 0 128 78h86q-13 -68 -68.5 -110t-145.5 -42q-115 0 -180 75.5t-65 194.5q0 118 65 189t178 71q106 0 164.5 -68t60.5 -167zM292 443q-65 0 -103.5 -33.5t-48.5 -85.5h291q-5 50 -41.5 84.5t-97.5 34.5zM246 623h-92v100 h92v-100zM427 623h-92v100h92v-100z" />
<glyph unicode="&#x452;" horiz-adv-x="631" d="M359 483q93 0 145.5 -54t52.5 -146v-310q0 -82 -42.5 -127.5t-119.5 -45.5h-63v73h47q93 0 93 103v292q0 139 -129 139q-66 0 -107.5 -49.5t-41.5 -117.5v-240h-85v578h-82v61h82v88h85v-88h208v-61h-208v-163h19q20 30 58 49t88 19z" />
<glyph unicode="&#x453;" horiz-adv-x="491" d="M401 727l-109 -145h-77l86 145h100zM82 0v504h378v-74h-293v-430h-85z" />
<glyph unicode="&#x454;" horiz-adv-x="555" d="M427 146h83q-14 -71 -72.5 -115t-143.5 -44q-113 0 -178 73t-65 192t64.5 192t177.5 73q85 0 142 -42t71 -111h-83q-24 79 -131 79q-69 0 -108.5 -41.5t-44.5 -109.5h226v-72h-227q5 -71 45 -115t109 -44q114 0 135 85z" />
<glyph unicode="&#x455;" horiz-adv-x="514" d="M226 312l97 -17q148 -26 148 -151q0 -65 -55 -111t-152 -46q-103 0 -158.5 41.5t-65.5 116.5h85q16 -84 135 -84q58 0 92 20.5t34 60.5q0 34 -21.5 52.5t-71.5 27.5l-101 18q-131 24 -131 128q0 66 51 107.5t147 41.5q86 0 138 -39t60 -105h-84q-4 34 -38 52t-81 18 q-48 0 -78 -17.5t-30 -50.5q0 -28 18.5 -41.5t61.5 -21.5z" />
<glyph unicode="&#x456;" horiz-adv-x="254" d="M176 627h-98v100h98v-100zM169 504v-504h-85v504h85z" />
<glyph unicode="&#x457;" horiz-adv-x="254" d="M82 627h-92v100h92v-100zM263 627h-92v100h92v-100zM169 504v-504h-85v504h85z" />
<glyph unicode="&#x458;" horiz-adv-x="265" d="M19 -200h-63v74h46q50 0 72 25.5t22 76.5v528h85v-531q0 -82 -42.5 -127.5t-119.5 -45.5zM187 627h-98v100h98v-100z" />
<glyph unicode="&#x459;" horiz-adv-x="890" d="M650 74q116 0 116 95q0 47 -26.5 71t-89.5 24h-129v-190h129zM141 504h380v-168h139q91 0 141 -44.5t50 -122.5q0 -79 -50 -124t-141 -45h-224v430h-216v-123q0 -171 -41.5 -239t-136.5 -68h-17v80h17q53 0 76 49t23 180v195z" />
<glyph unicode="&#x45a;" horiz-adv-x="876" d="M647 0h-225v222h-255v-222h-85v504h85v-208h255v208h85v-168h140q91 0 140.5 -44t49.5 -123t-49.5 -124t-140.5 -45zM635 74q117 0 117 95q0 47 -27 71t-90 24h-128v-190h128z" />
<glyph unicode="&#x45b;" horiz-adv-x="631" d="M557 0h-85v268q0 139 -129 139q-66 0 -107.5 -49.5t-41.5 -117.5v-240h-85v578h-82v61h82v88h85v-88h208v-61h-208v-163h19q20 30 58 49t88 19q93 0 145.5 -54t52.5 -146v-283z" />
<glyph unicode="&#x45c;" horiz-adv-x="560" d="M417 727l-109 -145h-77l86 145h100zM430 0l-117 222h-146v-222h-85v504h85v-208h148l110 208h89l-128 -243l135 -261h-91z" />
<glyph unicode="&#x45e;" horiz-adv-x="538" d="M218 -200h-87l103 245l-212 459h92l152 -332h25l140 332h91zM353 724h69q-1 -69 -42.5 -107.5t-113.5 -38.5q-71 0 -112.5 38.5t-42.5 107.5h69q2 -85 86 -85t87 85z" />
<glyph unicode="&#x45f;" horiz-adv-x="605" d="M438 504h85v-504h-179v-143h-83v143h-179v504h85v-430h271v430z" />
<glyph unicode="&#x490;" horiz-adv-x="623" d="M181 632v-632h-90v714h401v150h87v-232h-398z" />
<glyph unicode="&#x491;" horiz-adv-x="481" d="M367 625h83v-195h-283v-430h-85v504h285v121z" />
<glyph unicode="&#x492;" horiz-adv-x="655" d="M28 317v74h96v323h487v-82h-397v-241h245v-74h-245v-317h-90v317h-96z" />
<glyph unicode="&#x493;" horiz-adv-x="517" d="M24 195v70h86v239h376v-74h-291v-165h191v-70h-191v-195h-85v195h-86z" />
<glyph unicode="&#x49a;" horiz-adv-x="723" d="M91 0v714h90v-305h216l143 305h95l-160 -347l131 -285h90v-257h-89v175h-58l-152 327h-216v-327h-90z" />
<glyph unicode="&#x49b;" horiz-adv-x="593" d="M430 0l-117 222h-146v-222h-85v504h85v-208h148l110 208h89l-128 -243l99 -187h80v-217h-82v143h-53z" />
<glyph unicode="&#x4a2;" horiz-adv-x="800" d="M580 714h90v-632h103v-257h-89v175h-104v326h-399v-326h-90v714h90v-304h399v304z" />
<glyph unicode="&#x4a3;" horiz-adv-x="651" d="M531 504v-430h92v-217h-82v143h-95v222h-279v-222h-85v504h85v-208h279v208h85z" />
<glyph unicode="&#x4ae;" horiz-adv-x="643" d="M307 389h28l191 325h97l-257 -441v-273h-90v273l-257 441h97z" />
<glyph unicode="&#x4af;" horiz-adv-x="539" d="M185 -40l-163 544h88l141 -464h41l136 464h89l-165 -544h-41v-160h-85v160h-41z" />
<glyph unicode="&#x4b0;" horiz-adv-x="643" d="M307 389h28l191 325h97l-228 -391h156v-74h-185v-249h-90v249h-184v74h155l-228 391h97z" />
<glyph unicode="&#x4b1;" horiz-adv-x="539" d="M77 -69v69h96l-151 504h88l141 -464h41l136 464h89l-153 -504h97v-69h-150v-131h-85v131h-149z" />
<glyph unicode="&#x4ba;" horiz-adv-x="680" d="M622 0h-90v204q0 28 -1.5 42.5t-10.5 37t-27 34t-53.5 20.5t-87.5 9q-86 0 -171 -20v-327h-90v714h90v-304q86 19 182 19q72 0 122.5 -14t76.5 -33t40 -52.5t17 -59t3 -66.5v-204z" />
<glyph unicode="&#x4bb;" horiz-adv-x="604" d="M332 517q93 0 145.5 -54t52.5 -146v-317h-85v302q0 139 -129 139q-66 0 -107.5 -49.5t-41.5 -117.5v-274h-85v727h85v-278h19q20 30 58 49t88 19z" />
<glyph unicode="&#x4d8;" horiz-adv-x="757" d="M371 69q113 0 172.5 72.5t65.5 184.5h-464q2 -111 59.5 -184t166.5 -73zM369 727q157 0 245 -104t88 -266q0 -161 -87 -265.5t-243 -104.5q-151 0 -234 104t-83 277q0 26 1 38h552q-10 106 -71 172.5t-169 66.5q-148 0 -184 -112h-94q21 90 95.5 142t183.5 52z" />
<glyph unicode="&#x4d9;" horiz-adv-x="570" d="M51 247q0 22 1 33h381q-7 78 -49.5 120.5t-110.5 42.5q-103 0 -128 -78h-84q12 68 68 110t144 42q114 0 180 -76.5t66 -193.5t-65 -188.5t-177 -71.5q-107 0 -166.5 69t-59.5 191zM278 61q69 0 110 38t45 110h-299q1 -69 39 -108.5t105 -39.5z" />
<glyph unicode="&#x4e8;" horiz-adv-x="776" d="M388 727q157 0 245 -104.5t88 -265.5t-88 -265.5t-245 -104.5q-158 0 -245.5 104.5t-87.5 265.5t87.5 265.5t245.5 104.5zM388 69q112 0 172.5 72.5t68.5 184.5h-482q7 -112 68 -184.5t173 -72.5zM388 645q-108 0 -168 -67t-72 -172h479q-11 105 -71.5 172t-167.5 67z " />
<glyph unicode="&#x4e9;" horiz-adv-x="598" d="M299 517q115 0 181.5 -74.5t66.5 -190.5t-66.5 -190.5t-181.5 -74.5t-181.5 74.5t-66.5 190.5t66.5 190.5t181.5 74.5zM299 61q70 0 111.5 44.5t49.5 113.5h-322q7 -69 48.5 -113.5t112.5 -44.5zM299 443q-69 0 -110 -43t-50 -109h320q-9 66 -50.5 109t-109.5 43z" />
<glyph unicode="&#x2000;" horiz-adv-x="485" />
<glyph unicode="&#x2001;" horiz-adv-x="970" />
<glyph unicode="&#x2002;" horiz-adv-x="485" />
<glyph unicode="&#x2003;" horiz-adv-x="970" />
<glyph unicode="&#x2004;" horiz-adv-x="323" />
<glyph unicode="&#x2005;" horiz-adv-x="242" />
<glyph unicode="&#x2006;" horiz-adv-x="161" />
<glyph unicode="&#x2007;" horiz-adv-x="161" />
<glyph unicode="&#x2008;" horiz-adv-x="121" />
<glyph unicode="&#x2009;" horiz-adv-x="194" />
<glyph unicode="&#x200a;" horiz-adv-x="53" />
<glyph unicode="&#x2010;" horiz-adv-x="371" d="M322 240h-273v75h273v-75z" />
<glyph unicode="&#x2011;" horiz-adv-x="371" d="M322 240h-273v75h273v-75z" />
<glyph unicode="&#x2012;" horiz-adv-x="371" d="M322 240h-273v75h273v-75z" />
<glyph unicode="&#x2013;" horiz-adv-x="617" d="M568 241h-520v72h520v-72z" />
<glyph unicode="&#x2014;" horiz-adv-x="877" d="M828 241h-780v72h780v-72z" />
<glyph unicode="&#x2018;" horiz-adv-x="258" d="M133 599h48v-116h-104v133l56 98h56l-56 -98v-17z" />
<glyph unicode="&#x2019;" horiz-adv-x="258" d="M125 598h-48v116h104v-133l-56 -98h-56l56 98v17z" />
<glyph unicode="&#x201a;" horiz-adv-x="258" d="M125 0h-48v116h104v-133l-56 -98h-56l56 98v17z" />
<glyph unicode="&#x201c;" horiz-adv-x="433" d="M133 599h48v-116h-104v133l56 98h56l-56 -98v-17zM308 599h48v-116h-104v133l56 98h56l-56 -98v-17z" />
<glyph unicode="&#x201d;" horiz-adv-x="433" d="M125 598h-48v116h104v-133l-56 -98h-56l56 98v17zM300 598h-48v116h104v-133l-56 -98h-56l56 98v17z" />
<glyph unicode="&#x201e;" horiz-adv-x="433" d="M125 0h-48v116h104v-133l-56 -98h-56l56 98v17zM300 0h-48v116h104v-133l-56 -98h-56l56 98v17z" />
<glyph unicode="&#x2020;" horiz-adv-x="549" d="M234 434h-188v72h188v208h81v-208h188v-72h-188v-586h-81v586z" />
<glyph unicode="&#x2021;" horiz-adv-x="549" d="M234 434h-188v72h188v208h81v-208h188v-72h-188v-305h188v-72h-188v-209h-81v209h-188v72h188v305z" />
<glyph unicode="&#x2022;" horiz-adv-x="429" d="M67 356q0 61 43 104t104 43t104 -43t43 -104t-43 -104t-104 -43t-104 43t-43 104z" />
<glyph unicode="&#x2026;" horiz-adv-x="754" d="M181 0h-104v116h104v-116zM429 0h-104v116h104v-116zM677 0h-104v116h104v-116z" />
<glyph unicode="&#x202f;" horiz-adv-x="194" />
<glyph unicode="&#x2030;" horiz-adv-x="1252" d="M268 0h-78l424 700h77zM209 714q77 0 119 -53.5t42 -135.5t-42 -135.5t-119 -53.5t-119 53.5t-42 135.5t42 135.5t119 53.5zM209 399q45 0 68.5 35t23.5 91t-23.5 91t-68.5 35t-68.5 -35t-23.5 -91t23.5 -91t68.5 -35zM671 365q77 0 119 -53.5t42 -135.5t-42 -135.5 t-119 -53.5t-119 53.5t-42 135.5t42 135.5t119 53.5zM671 50q45 0 68.5 35t23.5 91t-23.5 91t-68.5 35t-68.5 -35t-23.5 -91t23.5 -91t68.5 -35zM1043 365q77 0 119 -53.5t42 -135.5t-42 -135.5t-119 -53.5t-119 53.5t-42 135.5t42 135.5t119 53.5zM1043 50q45 0 68.5 35 t23.5 91t-23.5 91t-68.5 35t-68.5 -35t-23.5 -91t23.5 -91t68.5 -35z" />
<glyph unicode="&#x2039;" horiz-adv-x="355" d="M135 294v-20l162 -173h-94l-145 151v63l145 152h94z" />
<glyph unicode="&#x203a;" horiz-adv-x="355" d="M220 274v20l-162 173h94l145 -152v-63l-145 -151h-94z" />
<glyph unicode="&#x2044;" horiz-adv-x="236" d="M-57 0h-77l424 700h76z" />
<glyph unicode="&#x205f;" horiz-adv-x="242" />
<glyph unicode="&#x20ac;" horiz-adv-x="674" d="M415 319l-19 -57h-193q13 -97 59.5 -147t121.5 -50q64 0 104 35t49 100h87q-13 -100 -77 -156.5t-164 -56.5q-108 0 -179 70t-89 205h-80l19 57h56q-2 40 1 73h-76l19 57h63q21 129 92 197t174 68q97 0 159 -53t76 -148h-88q-19 123 -147 123q-70 0 -116 -48.5 t-62 -138.5h255l-19 -57h-242q-3 -42 -2 -73h218z" />
<glyph unicode="&#x20b4;" horiz-adv-x="650" d="M38 261v57h574v-57h-415q-16 -28 -16 -66q0 -61 43.5 -95.5t113.5 -34.5q138 0 163 116h88q-14 -90 -78.5 -142t-171.5 -52q-114 0 -180 58t-66 148q0 34 13 68h-68zM38 448h413q25 28 25 72q0 54 -38 85t-97 31q-121 0 -145 -101h-87q11 81 74 130t158 49 q101 0 161.5 -55.5t60.5 -134.5q0 -43 -18 -76h67v-57h-574v57z" />
<glyph unicode="&#x20b8;" horiz-adv-x="526" d="M18 513v57h489v-57h-201v-513h-87v513h-201zM18 643v57h489v-57h-489z" />
<glyph unicode="&#x20bd;" horiz-adv-x="684" d="M44 288v77h97v335h258q112 0 172.5 -54t60.5 -151q0 -98 -60.5 -152.5t-172.5 -54.5h-170v-73h236v-57h-236v-158h-88v158h-97v57h97v73h-97zM388 365q156 0 156 130q0 128 -156 128h-159v-258h159z" />
<glyph unicode="&#x2116;" horiz-adv-x="1150" d="M576 700h86v-700h-136l-330 585h-19v-585h-86v700h136l330 -585h19v585zM1086 212h-323v60h323v-60zM924 714q77 0 119 -53.5t42 -135.5t-42 -135.5t-119 -53.5t-119 53.5t-42 135.5t42 135.5t119 53.5zM924 399q45 0 68.5 35t23.5 91t-23.5 91t-68.5 35t-68.5 -35 t-23.5 -91t23.5 -91t68.5 -35z" />
<glyph unicode="&#x2122;" horiz-adv-x="852" d="M507 714l84 -172h12l83 172h101v-380h-60v313h-12l-86 -175h-65l-86 175h-12v-313h-61v380h102zM341 714v-56h-127v-324h-62v324h-128v56h317z" />
<glyph unicode="&#x2126;" horiz-adv-x="758" d="M569 98v-20h132v-78h-275v76q186 114 186 302q0 122 -64 194.5t-169 72.5q-106 0 -169.5 -72.5t-63.5 -194.5q0 -187 185 -302v-76h-275v78h133v20q-134 116 -134 284q0 153 88.5 249t235.5 96t235.5 -96t88.5 -249q0 -168 -134 -284z" />
<glyph unicode="&#x2190;" horiz-adv-x="818" d="M207 290h553v-76h-553v-20l193 -194h-103l-251 252l251 252h103l-193 -194v-20z" />
<glyph unicode="&#x2191;" horiz-adv-x="678" d="M301 0v553h-20l-194 -193v103l252 251l252 -251v-103l-194 193h-20v-553h-76z" />
<glyph unicode="&#x2192;" horiz-adv-x="818" d="M58 290h553v20l-193 194h103l251 -252l-251 -252h-103l193 194v20h-553v76z" />
<glyph unicode="&#x2193;" horiz-adv-x="678" d="M377 714v-553h20l194 193v-103l-252 -251l-252 251v103l194 -193h20v553h76z" />
<glyph unicode="&#x2196;" horiz-adv-x="705" d="M565 183l-391 391l-15 -14v-274l-72 73v355h355l73 -72h-274l-14 -15l391 -391z" />
<glyph unicode="&#x2197;" horiz-adv-x="705" d="M531 574l-391 -391l-53 53l391 391l-14 15h-274l73 72h355v-355l-72 -73v274z" />
<glyph unicode="&#x2198;" horiz-adv-x="705" d="M174 140l391 391l53 -53l-391 -391l14 -15h274l-73 -72h-355v355l72 73v-274z" />
<glyph unicode="&#x2199;" horiz-adv-x="705" d="M140 531l391 -391l15 14v274l72 -73v-355h-355l-73 72h274l14 15l-391 391z" />
<glyph unicode="&#x2202;" horiz-adv-x="592" d="M296 61q80 0 120 49t40 124t-40 124t-120 49t-121 -49t-41 -124t41 -124t121 -49zM163 727h107q271 -193 271 -469q0 -120 -63.5 -195.5t-183.5 -75.5q-111 0 -177 71.5t-66 176.5t63.5 175.5t165.5 70.5q81 0 125 -44h23q-62 145 -265 290z" />
<glyph unicode="&#x2206;" horiz-adv-x="639" d="M372 714l227 -617v-97h-559v97l228 617h104zM519 78v20l-189 520h-20l-189 -520v-20h398z" />
<glyph unicode="&#x220f;" horiz-adv-x="597" d="M471 -200h-82v839h-181v-839h-83v839h-96v75h539v-75h-97v-839z" />
<glyph unicode="&#x2211;" horiz-adv-x="553" d="M143 78h382v-78h-487v97l200 250v20l-191 251v96h461v-78h-357v-19l186 -246v-29l-194 -245v-19z" />
<glyph unicode="&#x2212;" horiz-adv-x="682" d="M595 248h-508v73h508v-73z" />
<glyph unicode="&#x2215;" horiz-adv-x="500" d="M77 0h-77l424 700h76z" />
<glyph unicode="&#x221a;" horiz-adv-x="643" d="M36 504h78l125 -412h19l199 622h158v-69h-103l-208 -645h-112z" />
<glyph unicode="&#x221e;" horiz-adv-x="926" d="M453 324h20q33 36 55 56.5t63.5 42t83.5 21.5q73 0 118.5 -44t45.5 -118t-45.5 -118t-118.5 -44q-42 0 -83.5 21.5t-63.5 42t-55 56.5h-20q-33 -36 -55 -56.5t-63.5 -42t-83.5 -21.5q-73 0 -118.5 44t-45.5 118t45.5 118t118.5 44q42 0 83.5 -21.5t63.5 -42t55 -56.5z M422 282q-27 33 -47.5 53.5t-53.5 39t-67 18.5q-48 0 -80 -30t-32 -81t32 -81t80 -30q34 0 67 18.5t53.5 39t47.5 53.5zM504 282q27 -33 47.5 -53.5t53.5 -39t67 -18.5q48 0 80 30t32 81t-32 81t-80 30q-34 0 -67 -18.5t-53.5 -39t-47.5 -53.5z" />
<glyph unicode="&#x222b;" horiz-adv-x="477" d="M426 727h39v-74h-41q-52 0 -78.5 -29t-36.5 -84l-100 -564q-16 -93 -65 -134.5t-135 -41.5h-39v74h40q96 0 116 113l99 564q16 93 65.5 134.5t135.5 41.5z" />
<glyph unicode="&#x2248;" horiz-adv-x="670" d="M516 460h67q0 -75 -34.5 -111.5t-94.5 -36.5q-33 0 -68.5 17t-60.5 37.5t-56 37.5t-56 17q-59 0 -59 -80h-67q0 148 129 148q34 0 69.5 -17t60.5 -37.5t55.5 -37.5t55.5 -17q59 0 59 80zM516 249h67q0 -75 -34.5 -111.5t-94.5 -36.5q-33 0 -68.5 17t-60.5 37.5t-56 37.5 t-56 17q-59 0 -59 -80h-67q0 148 129 148q34 0 69.5 -17t60.5 -37.5t55.5 -37.5t55.5 -17q59 0 59 80z" />
<glyph unicode="&#x2260;" horiz-adv-x="680" d="M593 420v-74h-174l-80 -125h254v-74h-302l-78 -123h-79l79 123h-126v74h174l81 125h-255v74h303l81 124h75l-80 -124h127z" />
<glyph unicode="&#x2264;" horiz-adv-x="681" d="M87 0v74h507v-74h-507zM594 119l-507 171v82l507 171v-77l-390 -125v-20l390 -125v-77z" />
<glyph unicode="&#x2265;" horiz-adv-x="681" d="M594 290l-507 -171v77l389 125v20l-389 125v77l507 -171v-82zM594 74v-74h-507v74h507z" />
<glyph unicode="&#x25ca;" horiz-adv-x="534" d="M310 714l166 -357l-166 -357h-86l-166 357l166 357h86zM277 96l115 261l-115 261h-20l-115 -261l115 -261h20z" />
<glyph unicode="&#x25fc;" horiz-adv-x="505" d="M0 505h505v-505h-505v505z" />
<glyph unicode="&#xf6c3;" horiz-adv-x="176" d="M90 -220h-57l55 62v17h-44v83h100v-100z" />
<glyph horiz-adv-x="381" d="M342 523q0 -98 -41.5 -147.5t-110.5 -49.5t-110 49.5t-41 147.5q0 99 41 148.5t110 49.5t110.5 -49.5t41.5 -148.5zM190 385q43 0 65 37t22 101q0 65 -22 102t-65 37q-86 0 -86 -139q0 -138 86 -138z" />
<glyph horiz-adv-x="331" d="M199 391h93v-58h-253v58h94v246h-14l-80 -45v65l97 57h63v-323z" />
<glyph horiz-adv-x="362" d="M139 391h184v-58h-284v71q79 56 119 85q25 18 40 30.5t30 35t15 44.5q0 29 -17.5 46t-48.5 17q-73 0 -74 -69h-65q1 64 40 96t100 32q58 0 94 -31t36 -88q0 -71 -76 -128l-93 -69v-14z" />
<glyph horiz-adv-x="364" d="M227 570q43 -6 71 -37t28 -79q0 -59 -40.5 -93.5t-104.5 -34.5q-63 0 -103.5 35.5t-42.5 90.5h64q3 -31 26 -49t56 -18q35 0 57.5 19t22.5 51q0 33 -21.5 51.5t-57.5 18.5q-18 0 -36 -3v59l76 61v14h-159v58h247v-64l-83 -66v-14z" />
<glyph horiz-adv-x="385" d="M294 477h52v-58h-52v-86h-65v86h-192v62l173 233h84v-237zM110 477h120v158h-14l-106 -144v-14z" />
<glyph horiz-adv-x="363" d="M194 594q59 0 94.5 -37.5t35.5 -92.5q0 -63 -39 -100.5t-102 -37.5q-67 0 -103.5 34.5t-40.5 90.5h65q8 -66 77 -66q36 0 57 20.5t21 57.5q0 33 -20.5 54t-54.5 21q-50 0 -75 -34h-61l20 210h236v-58h-185l-7 -84h14q25 22 68 22z" />
<glyph horiz-adv-x="369" d="M197 587q57 0 95 -36t38 -91q0 -58 -38 -96t-102 -38q-151 0 -151 187q0 92 39 150t117 58q50 0 83 -28.5t42 -73.5h-65q-13 45 -62 45q-38 0 -61.5 -28t-28.5 -79h14q28 30 80 30zM188 383q33 0 55 20t22 56q0 35 -22 53.5t-56 18.5t-55 -18.5t-21 -53.5q0 -36 22 -56 t55 -20z" />
<glyph horiz-adv-x="342" d="M39 714h264v-59l-169 -322h-69l163 309v14h-189v58z" />
<glyph horiz-adv-x="375" d="M188 666q-31 0 -50.5 -14.5t-19.5 -39.5t19.5 -39t50.5 -14q30 0 49.5 14t19.5 39t-20 39.5t-49 14.5zM188 382q37 0 60 17.5t23 45.5q0 27 -23 44t-60 17t-60.5 -17t-23.5 -44q0 -28 23.5 -45.5t60.5 -17.5zM97 541q-43 25 -43 75q0 46 37.5 75.5t96.5 29.5t96 -29 t37 -76q0 -51 -43 -75v-13q58 -28 58 -90q0 -48 -40.5 -80t-108.5 -32q-67 0 -107.5 32t-40.5 80q0 62 58 90v13z" />
<glyph horiz-adv-x="369" d="M172 460q-57 0 -95 36t-38 91q0 58 38 96t102 38q151 0 151 -187q0 -92 -39 -150t-117 -58q-50 0 -83 28.5t-42 73.5h65q14 -45 62 -45q38 0 61.5 28t28.5 79h-14q-28 -30 -80 -30zM181 664q-33 0 -55 -20t-22 -56q0 -35 22 -53.5t56 -18.5t55 18.5t21 53.5q0 36 -22 56 t-55 20z" />
<glyph horiz-adv-x="381" d="M342 190q0 -98 -41.5 -147.5t-110.5 -49.5t-110 49.5t-41 147.5q0 99 41 148.5t110 49.5t110.5 -49.5t41.5 -148.5zM190 52q43 0 65 37t22 101q0 65 -22 102t-65 37q-86 0 -86 -139q0 -138 86 -138z" />
<glyph horiz-adv-x="331" d="M199 58h93v-58h-253v58h94v246h-14l-80 -45v65l97 57h63v-323z" />
<glyph horiz-adv-x="362" d="M139 58h184v-58h-284v71q79 56 119 85q25 18 40 30.5t30 35t15 44.5q0 29 -17.5 46t-48.5 17q-73 0 -74 -69h-65q1 64 40 96t100 32q58 0 94 -31t36 -88q0 -71 -76 -128l-93 -69v-14z" />
<glyph horiz-adv-x="368" d="M229 237q43 -6 71 -37t28 -79q0 -59 -40.5 -93.5t-104.5 -34.5q-63 0 -103.5 35.5t-42.5 90.5h64q3 -31 26 -49t56 -18q35 0 57.5 19t22.5 51q0 33 -21.5 51.5t-57.5 18.5q-18 0 -36 -3v59l76 61v14h-159v58h247v-64l-83 -66v-14z" />
<glyph horiz-adv-x="385" d="M294 144h52v-58h-52v-86h-65v86h-192v62l173 233h84v-237zM110 144h120v158h-14l-106 -144v-14z" />
<glyph horiz-adv-x="363" d="M194 261q59 0 94.5 -37.5t35.5 -92.5q0 -63 -39 -100.5t-102 -37.5q-67 0 -103.5 34.5t-40.5 90.5h65q8 -66 77 -66q36 0 57 20.5t21 57.5q0 33 -20.5 54t-54.5 21q-50 0 -75 -34h-61l20 210h236v-58h-185l-7 -84h14q25 22 68 22z" />
<glyph horiz-adv-x="369" d="M197 254q57 0 95 -36t38 -91q0 -58 -38 -96t-102 -38q-151 0 -151 187q0 92 39 150t117 58q50 0 83 -28.5t42 -73.5h-65q-13 45 -62 45q-38 0 -61.5 -28t-28.5 -79h14q28 30 80 30zM188 50q33 0 55 20t22 56q0 35 -22 53.5t-56 18.5t-55 -18.5t-21 -53.5q0 -36 22 -56 t55 -20z" />
<glyph horiz-adv-x="342" d="M39 381h264v-59l-169 -322h-69l163 309v14h-189v58z" />
<glyph horiz-adv-x="375" d="M188 333q-31 0 -50.5 -14.5t-19.5 -39.5t19.5 -39t50.5 -14q30 0 49.5 14t19.5 39t-20 39.5t-49 14.5zM188 49q37 0 60 17.5t23 45.5q0 27 -23 44t-60 17t-60.5 -17t-23.5 -44q0 -28 23.5 -45.5t60.5 -17.5zM97 208q-43 25 -43 75q0 46 37.5 75.5t96.5 29.5t96 -29 t37 -76q0 -51 -43 -75v-13q58 -28 58 -90q0 -48 -40.5 -80t-108.5 -32q-67 0 -107.5 32t-40.5 80q0 62 58 90v13z" />
<glyph horiz-adv-x="369" d="M172 127q-57 0 -95 36t-38 91q0 58 38 96t102 38q151 0 151 -187q0 -92 -39 -150t-117 -58q-50 0 -83 28.5t-42 73.5h65q14 -45 62 -45q38 0 61.5 28t28.5 79h-14q-28 -30 -80 -30zM181 331q-33 0 -55 -20t-22 -56q0 -35 22 -53.5t56 -18.5t55 18.5t21 53.5q0 36 -22 56 t-55 20z" />
<glyph horiz-adv-x="607" d="M304 517q110 0 181.5 -72.5t71.5 -192.5t-71.5 -192.5t-181.5 -72.5t-182 72.5t-72 192.5t72 192.5t182 72.5zM304 63q79 0 123 51.5t44 137.5t-43.5 137.5t-123.5 51.5t-124 -51.5t-44 -137.5t44 -137.5t124 -51.5z" />
<glyph horiz-adv-x="460" d="M60 0v76h142v339h-19l-123 -80v90l123 79h105v-428h131v-76h-359z" />
<glyph horiz-adv-x="547" d="M499 76v-76h-448v96l195 94q75 37 110 69.5t35 82.5q0 45 -32.5 72t-90.5 27q-66 0 -100.5 -33.5t-34.5 -94.5h-85q0 88 58.5 146t162.5 58q99 0 153 -52t54 -120q0 -40 -14 -72.5t-42 -56.5t-53.5 -40t-63.5 -34l-97 -46v-20h293z" />
<glyph horiz-adv-x="568" d="M77 504h410v-94l-174 -153v-19q91 -2 148 -57.5t57 -153.5q0 -107 -68 -168.5t-177 -61.5q-105 0 -172 59t-72 149h85q5 -59 49.5 -95.5t109.5 -36.5q71 0 115.5 42t44.5 112q0 69 -42 109t-118 40q-37 0 -59 -6v89l171 151v20h-308v74z" />
<glyph horiz-adv-x="612" d="M470 76h97v-76h-97v-196h-85v196h-346v97l311 407h120v-428zM128 76h259v335h-20l-239 -315v-20z" />
<glyph horiz-adv-x="595" d="M316 278q103 0 164 -66t61 -166q0 -113 -66 -181t-173 -68q-111 0 -174 57.5t-69 150.5h85q7 -64 48 -98t106 -34q71 0 114.5 46t43.5 123q0 73 -42.5 118.5t-112.5 45.5q-94 0 -140 -67h-86l31 365h399v-74h-330l-16 -201h20q54 49 137 49z" />
<glyph horiz-adv-x="593" d="M324 455q97 0 160 -63.5t63 -163.5q0 -104 -63.5 -172.5t-172.5 -68.5q-255 0 -255 344q0 170 66.5 276.5t197.5 106.5q86 0 141 -46.5t68 -120.5h-85q-27 91 -124 91q-82 0 -129.5 -67.5t-51.5 -183.5h20q57 68 165 68zM310 63q68 0 110 42.5t42 118.5q0 75 -43 116 t-111 41q-67 0 -110 -41.5t-43 -114.5q0 -75 44 -118.5t111 -43.5z" />
<glyph horiz-adv-x="548" d="M495 409l-303 -605h-90l302 607v19h-355v74h446v-95z" />
<glyph horiz-adv-x="609" d="M446 359q42 -15 76.5 -59.5t34.5 -108.5q0 -89 -69 -146.5t-183 -57.5t-183 57.5t-69 146.5q0 64 34 108.5t77 59.5v20q-34 15 -62 54t-28 94q0 83 64.5 135t166.5 52t166.5 -52t64.5 -135q0 -54 -28 -93t-62 -55v-20zM305 640q-62 0 -104.5 -31t-42.5 -85t42.5 -86 t104.5 -32t104.5 32t42.5 86t-42.5 85t-104.5 31zM305 63q76 0 121.5 36t45.5 97t-45 97t-122 36t-122 -36t-45 -97t45.5 -97t121.5 -36z" />
<glyph horiz-adv-x="593" d="M267 49q-97 0 -160 63.5t-63 163.5q0 104 63.5 172.5t172.5 68.5q255 0 255 -344q0 -170 -66.5 -273.5t-197.5 -103.5q-86 0 -141 46.5t-68 120.5h85q27 -91 124 -91q83 0 130 64.5t51 180.5h-20q-57 -68 -165 -68zM281 441q-67 0 -109.5 -42.5t-42.5 -118.5 q0 -75 43 -116t111 -41q67 0 110 41.5t43 114.5q0 75 -44 118.5t-111 43.5z" />
<glyph d="M315 714q117 0 187.5 -91.5t70.5 -272.5t-70.5 -272t-187.5 -91t-187 91t-70 272q0 182 70 273t187 91zM146 350q0 -127 36 -198l222 454q-38 30 -89 30q-85 0 -127 -75.5t-42 -210.5zM315 65q85 0 127.5 75.5t42.5 209.5q0 124 -36 197l-221 -454q36 -28 87 -28z" />
<glyph d="M63 0v78h229v530h-18l-163 -105v92l162 105h107v-622h190v-78h-507z" />
<glyph d="M74 507q7 101 71 154t162 53q101 0 164 -55.5t63 -157.5q0 -125 -155 -254l-175 -149v-20h353v-78h-481v98q186 153 261 220q31 27 51 48.5t39 59t19 75.5q0 65 -38 100t-103 35q-60 0 -98 -32.5t-45 -96.5h-88z" />
<glyph d="M107 700h409v-96l-175 -154v-19q93 -2 150.5 -58t57.5 -155q0 -107 -69 -169t-178 -62q-105 0 -172.5 59t-72.5 150h88q5 -59 49 -95t108 -36q72 0 115.5 41t43.5 112q0 69 -41 109t-117 40q-37 0 -61 -6v91l171 152v20h-306v76z" />
<glyph d="M484 242h96v-78h-96v-164h-86v164h-346v98l311 438h121v-458zM144 242h255v359h-20l-235 -339v-20z" />
<glyph d="M334 471q103 0 164.5 -67t61.5 -167q0 -113 -66.5 -181.5t-173.5 -68.5q-111 0 -174.5 58t-69.5 151h87q7 -64 47.5 -97.5t105.5 -33.5q70 0 113 45.5t43 122.5q0 73 -41.5 118.5t-111.5 45.5q-94 0 -139 -66h-88l31 369h400v-76h-329l-16 -203h20q55 50 136 50z" />
<glyph d="M339 456q97 0 161 -64t64 -164q0 -104 -64.5 -172.5t-173.5 -68.5q-119 0 -188 82t-69 262q0 170 67.5 276.5t198.5 106.5q86 0 141.5 -46.5t68.5 -120.5h-87q-26 89 -123 89q-82 0 -129.5 -66.5t-51.5 -182.5h20q23 28 65 48.5t100 20.5zM325 65q67 0 109 41.5t42 117.5 q0 74 -43 114.5t-110 40.5q-66 0 -109 -41t-43 -113q0 -74 43.5 -117t110.5 -43z" />
<glyph d="M532 604l-303 -604h-92l304 604v20h-355v76h446v-96z" />
<glyph d="M458 359q41 -15 75.5 -59.5t34.5 -108.5q0 -88 -69.5 -146t-183.5 -58t-183.5 58t-69.5 146q0 64 34 108.5t76 59.5v20q-34 16 -61.5 54.5t-27.5 93.5q0 83 65 135t167 52t167 -52t65 -135q0 -54 -28 -93t-61 -55v-20zM315 638q-62 0 -104 -30.5t-42 -84.5t42 -85 t104 -31t104 31t42 85t-42 84.5t-104 30.5zM315 65q76 0 121 36.5t45 97.5t-44.5 96.5t-121.5 35.5t-121.5 -35.5t-44.5 -96.5t45 -97.5t121 -36.5z" />
<glyph d="M291 245q-97 0 -161 64t-64 164q0 104 64.5 172.5t173.5 68.5q119 0 188 -82t69 -262q0 -170 -67.5 -276.5t-198.5 -106.5q-86 0 -141.5 46.5t-68.5 120.5h87q26 -89 123 -89q82 0 129.5 66.5t51.5 182.5h-20q-58 -69 -165 -69zM305 636q-67 0 -109 -41.5t-42 -117.5 q0 -74 43 -114.5t110 -40.5q66 0 109 41t43 113q0 74 -43.5 117t-110.5 43z" />
<glyph d="M284 798h61v-85q84 -8 139.5 -59.5t66.5 -128.5h-86q-21 96 -120 110v-234l53 -12q172 -39 172 -196q0 -85 -58 -143t-167 -63v-85h-61v87q-97 10 -155 64.5t-70 142.5h87q10 -55 47 -88t91 -42v267l-44 10q-156 37 -156 178q0 77 52.5 132t147.5 61v84zM345 320v-255 q61 4 99.5 37t38.5 89q0 101 -118 125zM284 636q-53 -5 -84.5 -33t-31.5 -79q0 -48 26.5 -73.5t89.5 -36.5v222z" />
<glyph d="M386 319l-19 -57h-184q13 -97 57.5 -147t117.5 -50q62 0 99.5 35.5t47.5 99.5h87q-15 -101 -76 -157t-158 -56q-106 0 -175.5 70t-86.5 205h-73l19 57h49q-2 40 1 73h-69l19 57h56q19 129 88.5 197t171.5 68q95 0 153 -52.5t75 -148.5h-88q-21 123 -140 123 q-69 0 -114 -48t-59 -139h246l-19 -57h-234q-3 -39 0 -73h208z" />
<glyph d="M199 78h382v-78h-533v77h19q69 0 69 92v116h-88v74h88v139q0 102 56 159t153 57q93 0 146.5 -53t56.5 -148h-87q-3 123 -115 123q-62 0 -92 -37.5t-30 -99.5v-140h215v-74h-215v-107q0 -56 -25 -80v-20z" />
<glyph d="M116 302v57h95l-176 341h92l173 -341h28l174 341h92l-176 -341h94v-57h-124l-30 -58v-15h154v-57h-154v-172h-88v172h-154v57h154v15l-30 58h-124z" />
<glyph d="M43 288v77h86v335h237q111 0 171 -54t60 -151t-60 -152t-171 -55h-149v-73h222v-57h-222v-158h-88v158h-86v57h86v73h-86zM353 365q156 0 156 132q0 61 -36.5 93.5t-119.5 32.5h-136v-258h136z" />
<glyph d="M44 318h542v-57h-396q-15 -29 -15 -66q0 -59 40.5 -94.5t104.5 -35.5q129 0 157 116h88q-15 -89 -78.5 -141.5t-165.5 -52.5q-108 0 -170.5 60t-62.5 146q0 36 12 68h-56v57zM44 448h387q26 25 26 72q0 52 -34.5 84t-90.5 32q-112 0 -138 -101h-87q13 80 73 129.5 t151 49.5q97 0 155 -57t58 -136q0 -41 -17 -73h59v-57h-542v57z" />
<glyph d="M70 513v57h489v-57h-201v-513h-87v513h-201zM70 643v57h489v-57h-489z" />
<glyph d="M291 -80v69q-99 12 -154.5 84t-55.5 179t55.5 179t154.5 84v69h61v-68q75 -7 123 -49.5t60 -108.5h-85q-23 73 -98 83v-379q82 12 101 90h85q-13 -69 -61.5 -113t-124.5 -51v-68h-61zM166 254q0 -73 31 -125.5t94 -64.5v376q-63 -12 -94 -63t-31 -123z" />
<glyph horiz-adv-x="378" d="M235 896l107 -129h-84l-61 71h-18l-61 -71h-82l107 129h92z" />
<glyph horiz-adv-x="345" d="M128 796h-92v100h92v-100zM309 796h-92v100h92v-100z" />
<glyph horiz-adv-x="266" d="M227 896l-109 -129h-78l85 129h102z" />
<glyph horiz-adv-x="266" d="M148 767l-108 129h101l86 -129h-79z" />
<glyph horiz-adv-x="298" d="M149 967q45 0 77 -31.5t32 -76.5q0 -44 -32 -76t-77 -32t-77 32t-32 76q0 45 32 76.5t77 31.5zM149 804q23 0 39 16t16 39t-16 39t-39 16t-39 -16t-16 -39t16 -39t39 -16z" />
<glyph horiz-adv-x="378" d="M143 767l-107 129h84l61 -71h18l61 71h82l-107 -129h-92z" />
<glyph horiz-adv-x="170" d="M134 796h-98v100h98v-100z" />
<glyph horiz-adv-x="357" d="M254 896h64q0 -62 -37 -96t-103 -34q-65 0 -101.5 34t-37.5 96h64q0 -33 19.5 -51.5t55.5 -18.5q37 0 56.5 18.5t19.5 51.5z" />
<glyph horiz-adv-x="407" d="M210 896l-99 -129h-74l77 129h96zM372 896l-100 -129h-73l77 129h96z" />
<glyph horiz-adv-x="408" d="M313 896h55q0 -129 -94 -129q-28 0 -55.5 16.5t-50.5 33t-39 16.5q-34 0 -34 -66h-55q0 129 94 129q28 0 55.5 -16.5t50.5 -33t39 -16.5q20 0 27 17t7 49z" />
<glyph horiz-adv-x="362" d="M322 809h-282v64h282v-64z" />
<glyph horiz-adv-x="421" d="M297 724h69q-1 -69 -42.5 -107.5t-113.5 -38.5q-71 0 -112.5 38.5t-42.5 107.5h69q2 -85 86 -85t87 85z" />
<glyph horiz-adv-x="428" d="M315 904h73q-1 -73 -50 -114t-125 -41q-75 0 -123.5 41.5t-49.5 113.5h73q1 -41 28.5 -65.5t71.5 -24.5q45 0 73 24.5t29 65.5z" />
<glyph horiz-adv-x="369" d="M321 325h-273v75h273v-75z" />
<glyph horiz-adv-x="617" d="M568 326h-520v72h520v-72z" />
<glyph horiz-adv-x="877" d="M828 326h-780v72h780v-72z" />
<glyph horiz-adv-x="1445" d="M1396 326h-1348v72h1348v-72z" />
<glyph horiz-adv-x="324" d="M266 -93h-189v900h189v-68h-109v-764h109v-68z" />
<glyph horiz-adv-x="324" d="M247 -93h-189v68h109v764h-109v68h189v-900z" />
<glyph horiz-adv-x="390" d="M174 367v-20q55 -17 55 -105v-168q0 -99 89 -99h33v-68h-39q-73 0 -118 41.5t-45 117.5v160q0 49 -13.5 72.5t-49.5 23.5h-14v70h14q36 0 49.5 23.5t13.5 72.5v160q0 76 45 117.5t118 41.5h39v-68h-33q-89 0 -89 -99v-168q0 -88 -55 -105z" />
<glyph horiz-adv-x="390" d="M216 347v20q-55 17 -55 105v168q0 99 -89 99h-33v68h39q73 0 118 -41.5t45 -117.5v-160q0 -49 13.5 -72.5t49.5 -23.5h14v-70h-14q-36 0 -49.5 -23.5t-13.5 -72.5v-160q0 -76 -45 -117.5t-118 -41.5h-39v68h33q89 0 89 99v168q0 88 55 105z" />
<glyph horiz-adv-x="294" d="M128 360q0 -242 161 -453h-82q-159 190 -159 453q0 258 152 447h82q-154 -208 -154 -447z" />
<glyph horiz-adv-x="294" d="M166 360q0 239 -154 447h82q152 -189 152 -447q0 -263 -159 -453h-82q161 211 161 453z" />
<glyph horiz-adv-x="564" d="M220 340v20l-162 173h94l145 -152v-63l-145 -151h-94zM428 340v20l-162 173h94l146 -152v-63l-146 -151h-94z" />
<glyph horiz-adv-x="564" d="M135 360v-20l162 -173h-94l-145 151v63l145 152h94zM344 360v-20l162 -173h-94l-146 151v63l146 152h94z" />
<glyph horiz-adv-x="355" d="M220 340v20l-162 173h94l145 -152v-63l-145 -151h-94z" />
<glyph horiz-adv-x="355" d="M135 360v-20l162 -173h-94l-145 151v63l145 152h94z" />
<glyph horiz-adv-x="314" d="M202 0h-90v295l17 230h57l16 -230v-295zM105 714h104v-116h-104v116z" />
<glyph horiz-adv-x="547" d="M280 -13q-98 0 -156.5 52.5t-58.5 140.5q0 36 8 64t27.5 51.5t36.5 38t50 39.5q40 30 52.5 50t12.5 66v36h86v-36q0 -62 -20.5 -95.5t-75.5 -74.5q-49 -36 -70 -64t-21 -75q0 -49 34.5 -84t93.5 -35q129 0 136 133h86q-4 -96 -62.5 -151.5t-158.5 -55.5zM243 714h104 v-116h-104v116z" />
<glyph horiz-adv-x="615" d="M533 504v-504h-82v55h-20q-54 -68 -156 -68q-103 0 -163.5 75t-60.5 190t60.5 190t163.5 75q102 0 156 -68h20v55h82zM449 252q0 81 -39.5 136t-118.5 55q-75 0 -115 -52t-40 -139t40 -139t115 -52q79 0 118.5 55t39.5 136z" />
<glyph horiz-adv-x="615" d="M533 504v-504h-82v55h-20q-54 -68 -156 -68q-103 0 -163.5 75t-60.5 190t60.5 190t163.5 75q102 0 156 -68h20v55h82zM449 252q0 81 -39.5 136t-118.5 55q-75 0 -115 -52t-40 -139t40 -139t115 -52q79 0 118.5 55t39.5 136zM436 727l-109 -145h-77l86 145h100z" />
<glyph horiz-adv-x="615" d="M533 504v-504h-82v55h-20q-54 -68 -156 -68q-103 0 -163.5 75t-60.5 190t60.5 190t163.5 75q102 0 156 -68h20v55h82zM449 252q0 81 -39.5 136t-118.5 55q-75 0 -115 -52t-40 -139t40 -139t115 -52q79 0 118.5 55t39.5 136zM272 582l-108 145h100l86 -145h-78z" />
<glyph horiz-adv-x="615" d="M533 504v-504h-82v55h-20q-54 -68 -156 -68q-103 0 -163.5 75t-60.5 190t60.5 190t163.5 75q102 0 156 -68h20v55h82zM449 252q0 81 -39.5 136t-118.5 55q-75 0 -115 -52t-40 -139t40 -139t115 -52q79 0 118.5 55t39.5 136zM346 727l107 -145h-80l-65 86h-18l-64 -86h-79 l108 145h91z" />
<glyph horiz-adv-x="615" d="M533 504v-504h-82v55h-20q-54 -68 -156 -68q-103 0 -163.5 75t-60.5 190t60.5 190t163.5 75q102 0 156 -68h20v55h82zM449 252q0 81 -39.5 136t-118.5 55q-75 0 -115 -52t-40 -139t40 -139t115 -52q79 0 118.5 55t39.5 136zM254 627h-92v100h92v-100zM435 627h-92v100h92 v-100z" />
<glyph horiz-adv-x="615" d="M533 504v-504h-82v55h-20q-54 -68 -156 -68q-103 0 -163.5 75t-60.5 190t60.5 190t163.5 75q102 0 156 -68h20v55h82zM449 252q0 81 -39.5 136t-118.5 55q-75 0 -115 -52t-40 -139t40 -139t115 -52q79 0 118.5 55t39.5 136zM408 720h54q0 -132 -93 -132q-28 0 -55.5 17.5 t-50.5 35t-39 17.5q-35 0 -35 -70h-54q0 132 94 132q35 0 81 -35.5t64 -35.5q21 0 27.5 18t6.5 53z" />
<glyph horiz-adv-x="615" d="M184 687q0 45 32 76.5t77 31.5t77 -31.5t32 -76.5t-32 -76.5t-77 -31.5t-77 31.5t-32 76.5zM238 687q0 -23 16 -39t39 -16t39 16t16 39t-16 39t-39 16t-39 -16t-16 -39zM533 504v-504h-82v55h-20q-54 -68 -156 -68q-103 0 -163.5 75t-60.5 190t60.5 190t163.5 75 q102 0 156 -68h20v55h82zM449 252q0 81 -39.5 136t-118.5 55q-75 0 -115 -52t-40 -139t40 -139t115 -52q79 0 118.5 55t39.5 136z" />
<glyph horiz-adv-x="615" d="M533 504v-504h-82v55h-20q-54 -68 -156 -68q-103 0 -163.5 75t-60.5 190t60.5 190t163.5 75q102 0 156 -68h20v55h82zM449 252q0 81 -39.5 136t-118.5 55q-75 0 -115 -52t-40 -139t40 -139t115 -52q79 0 118.5 55t39.5 136zM445 639h-282v64h282v-64z" />
<glyph horiz-adv-x="615" d="M533 504v-504h-82v55h-20q-54 -68 -156 -68q-103 0 -163.5 75t-60.5 190t60.5 190t163.5 75q102 0 156 -68h20v55h82zM449 252q0 81 -39.5 136t-118.5 55q-75 0 -115 -52t-40 -139t40 -139t115 -52q79 0 118.5 55t39.5 136zM373 727h66q0 -68 -36.5 -106.5t-101.5 -38.5 t-102 38.5t-37 106.5h65q0 -39 18.5 -61.5t54.5 -22.5t54.5 22.5t18.5 61.5z" />
<glyph horiz-adv-x="615" d="M533 504v-504q-31 -16 -51.5 -40.5t-20.5 -49.5t19.5 -38.5t54.5 -13.5v-58h-21q-58 0 -91 25t-33 70q0 30 17 58.5t44 46.5v55h-20q-54 -68 -156 -68q-103 0 -163.5 75t-60.5 190t60.5 190t163.5 75q102 0 156 -68h20v55h82zM449 252q0 81 -39.5 136t-118.5 55 q-75 0 -115 -52t-40 -139t40 -139t115 -52q79 0 118.5 55t39.5 136z" />
<glyph horiz-adv-x="378" d="M214 0h-85v430h-102v74h102v152h85v-152h136v-74h-136v-430z" />
<glyph horiz-adv-x="433" d="M214 0h-85v430h-102v74h102v152h85v-152h136v-74h-136v-430zM394 645h-46v100h102v-117l-53 -74h-56l53 74v17z" />
<glyph horiz-adv-x="378" d="M168 -220h-57l55 62v17h-44v83h100v-100zM214 0h-85v430h-102v74h102v152h85v-152h136v-74h-136v-430z" />
<glyph horiz-adv-x="637" d="M313 339h28l179 375h94l-341 -714h-93l102 214l-264 500h97z" />
<glyph horiz-adv-x="637" d="M313 339h28l179 375h94l-341 -714h-93l102 214l-264 500h97zM453 896l-109 -129h-78l85 129h102z" />
<glyph horiz-adv-x="637" d="M313 339h28l179 375h94l-341 -714h-93l102 214l-264 500h97zM281 796h-92v100h92v-100zM462 796h-92v100h92v-100z" />
<glyph horiz-adv-x="656" d="M620 414v-76h-70v-123q0 -105 -69 -166.5t-181 -61.5t-182.5 59.5t-70.5 151.5q0 70 33.5 113.5t81.5 58.5v20q-38 16 -63 52t-25 91q0 83 61.5 132t153.5 49q91 0 147 -43t67 -118h-86q-22 85 -129 85q-59 0 -93.5 -30t-34.5 -78q0 -53 35 -84.5t102 -31.5h43v-76h-43 q-75 0 -119 -34t-44 -103q0 -63 46.5 -100t119.5 -37q80 0 122 39.5t42 111.5v199h156z" />
<glyph horiz-adv-x="625" d="M312 714q117 0 187.5 -91.5t70.5 -272.5t-70.5 -272t-187.5 -91t-187 91t-70 272q0 182 70 273t187 91zM143 350q0 -127 36 -198l222 454q-38 30 -89 30q-85 0 -127 -75.5t-42 -210.5zM312 65q85 0 127.5 75.5t42.5 209.5q0 124 -36 197l-221 -454q36 -28 87 -28z" />
<glyph horiz-adv-x="1445" d="M1396 241h-1348v72h1348v-72z" />
<glyph horiz-adv-x="615" d="M533 504v-504h-82v55h-20q-54 -68 -156 -68q-103 0 -163.5 75t-60.5 190t60.5 190t163.5 75q102 0 156 -68h20v55h82zM449 252q0 81 -39.5 136t-118.5 55q-75 0 -115 -52t-40 -139t40 -139t115 -52q79 0 118.5 55t39.5 136z" />
<glyph horiz-adv-x="640" d="M122 0v87h27q41 0 65.5 15.5t44.5 57.5l27 55l-263 499h95l199 -375h28l179 375h93l-263 -554q-43 -89 -86.5 -124.5t-117.5 -35.5h-28z" />
<glyph horiz-adv-x="640" d="M122 0v87h27q41 0 65.5 15.5t44.5 57.5l27 55l-263 499h95l199 -375h28l179 375h93l-263 -554q-43 -89 -86.5 -124.5t-117.5 -35.5h-28zM428 904h73q-1 -73 -50 -114t-125 -41q-75 0 -123.5 41.5t-49.5 113.5h73q1 -41 28.5 -65.5t71.5 -24.5q45 0 73 24.5t29 65.5z" />
<glyph horiz-adv-x="317" d="M80 473v241h34v-241h-34zM203 473v241h34v-241h-34z" />
<glyph horiz-adv-x="551" d="M300 0l32 208h-159l-32 -208h-34l32 208h-104v31h110l34 222h-102v31h107l33 208h34l-34 -208h161l33 208h34l-33 -208h104v-31h-109l-35 -222h103v-31h-108l-32 -208h-35zM213 461l-35 -222h160l35 222h-160z" />
<glyph horiz-adv-x="194" d="M80 473v241h34v-241h-34z" />
<glyph horiz-adv-x="238" d="M232 759q-148 -188 -148 -450q0 -261 148 -450h-43q-139 189 -139 450t140 450h42z" />
<glyph horiz-adv-x="240" d="M6 759h42q140 -189 140 -450t-139 -450h-43q148 189 148 450q0 262 -148 450z" />
<glyph horiz-adv-x="258" d="M198 -141h-118v900h118v-31h-84v-838h84v-31z" />
<glyph horiz-adv-x="258" d="M178 -141h-118v31h84v838h-84v31h118v-900z" />
<glyph horiz-adv-x="337" d="M137 318v-18q36 -14 36 -91v-215q0 -55 21.5 -79.5t72.5 -24.5h30v-31h-30q-63 0 -95.5 31.5t-32.5 104.5v204q0 51 -8.5 73t-37.5 22h-13v30h13q29 0 37.5 22t8.5 73v204q0 73 32.5 104.5t95.5 31.5h30v-31h-30q-51 0 -72.5 -24.5t-21.5 -79.5v-215q0 -77 -36 -91z" />
<glyph horiz-adv-x="337" d="M200 300v18q-36 14 -36 91v215q0 55 -21.5 79.5t-72.5 24.5h-30v31h30q63 0 95.5 -31.5t32.5 -104.5v-204q0 -51 8.5 -73t37.5 -22h13v-30h-13q-29 0 -37.5 -22t-8.5 -73v-204q0 -73 -32.5 -104.5t-95.5 -31.5h-30v31h30q51 0 72.5 24.5t21.5 79.5v215q0 77 36 91z" />
<glyph horiz-adv-x="452" d="M209 714h34l-1 -180l170 60l10 -35l-170 -55l107 -141l-28 -23l-105 147l-105 -147l-28 23l108 142l-171 54l11 35l169 -60z" />
<glyph horiz-adv-x="682" d="M325 300v238h33v-238h237v-31h-237v-238h-33v238h-238v31h238z" />
<glyph horiz-adv-x="682" d="M595 269h-508v31h508v-31z" />
<glyph horiz-adv-x="678" d="M591 78v-33l-504 216v44l504 216v-33l-454 -196v-18z" />
<glyph horiz-adv-x="680" d="M593 203v-31h-506v31h506zM593 395v-31h-506v31h506z" />
<glyph horiz-adv-x="678" d="M87 45v33l454 196v18l-454 196v33l504 -216v-44z" />
<glyph horiz-adv-x="371" d="M322 262h-273v31h273v-31z" />
<glyph horiz-adv-x="617" d="M568 262h-520v31h520v-31z" />
<glyph horiz-adv-x="877" d="M828 262h-780v31h780v-31z" />
<glyph horiz-adv-x="1445" d="M1396 262h-1348v31h1348v-31z" />
<glyph horiz-adv-x="505" d="M506 -117h-507v31h507v-31z" />
<glyph horiz-adv-x="365" d="M36 -141h-36l302 900h33z" />
<glyph horiz-adv-x="214" d="M90 -141v900h34v-900h-34z" />
<glyph horiz-adv-x="365" d="M365 -141h-36l-299 900h33z" />
<glyph horiz-adv-x="461" d="M40 523q0 85 54.5 141.5t135.5 56.5t136 -56.5t55 -141.5q0 -84 -55 -140.5t-136 -56.5t-135.5 56.5t-54.5 140.5zM74 523q0 -71 44 -118.5t112 -47.5t112.5 47.5t44.5 118.5q0 72 -44 119.5t-113 47.5q-68 0 -112 -47.5t-44 -119.5z" />
<glyph horiz-adv-x="484" d="M94 293v-18l166 -174h-42l-160 163v39l159 164h42zM260 293v-18l166 -174h-42l-160 163v39l159 164h42z" />
<glyph horiz-adv-x="484" d="M390 275v18l-166 174h42l160 -163v-39l-159 -164h-42zM224 275v18l-166 174h42l160 -163v-39l-159 -164h-42z" />
<glyph horiz-adv-x="318" d="M94 293v-18l166 -174h-42l-160 163v39l159 164h42z" />
<glyph horiz-adv-x="318" d="M224 275v18l-165 174h42l159 -164v-39l-160 -163h-42z" />
<glyph horiz-adv-x="234" d="M106 610h33v-102h-64v119l48 87h31l-48 -87v-17z" />
<glyph horiz-adv-x="234" d="M123 612h-33v102h64v-119l-48 -87h-31l48 87v17z" />
<glyph horiz-adv-x="234" d="M123 0h-33v102h64v-119l-48 -87h-31l48 87v17z" />
<glyph horiz-adv-x="371" d="M243 610h33v-102h-64v119l48 87h31l-48 -87v-17zM106 610h33v-102h-64v119l48 87h31l-48 -87v-17z" />
<glyph horiz-adv-x="371" d="M123 612h-33v102h64v-119l-48 -87h-31l48 87v17zM260 612h-33v102h64v-119l-48 -87h-31l48 87v17z" />
<glyph horiz-adv-x="371" d="M123 0h-33v102h64v-119l-48 -87h-31l48 87v17zM260 0h-33v102h64v-119l-48 -87h-31l48 87v17z" />
<glyph horiz-adv-x="818" d="M297 504h46l-214 -216v-20h631v-31h-631v-21l214 -216h-46l-251 252z" />
<glyph horiz-adv-x="678" d="M591 463v-46l-216 216h-19v-633h-34v633h-19l-216 -216v46l252 251z" />
<glyph horiz-adv-x="818" d="M475 504h46l251 -252l-251 -252h-46l214 216v21h-631v31h631v20z" />
<glyph horiz-adv-x="678" d="M591 297v-46l-252 -251l-252 251v46l216 -216h19v633h34v-633h19z" />
<glyph horiz-adv-x="690" d="M442 714l32 -32h-303l-13 -14l445 -447l-23 -23l-447 446l-13 -14v-304l-33 33v355h355z" />
<glyph horiz-adv-x="690" d="M216 682l32 32h355v-355l-33 -33v304l-13 14l-447 -446l-23 23l445 447l-13 14h-303z" />
<glyph horiz-adv-x="690" d="M474 32l-32 -32h-355v355l33 33v-304l13 -14l447 446l23 -23l-445 -447l13 -14h303z" />
<glyph horiz-adv-x="690" d="M248 0l-32 32h303l13 14l-445 447l23 23l447 -446l13 14v304l33 -33v-355h-355z" />
<glyph horiz-adv-x="238" d="M232 807q-148 -188 -148 -450q0 -261 148 -450h-43q-139 189 -139 450t140 450h42z" />
<glyph horiz-adv-x="238" d="M6 807h42q140 -189 140 -450t-139 -450h-43q148 189 148 450q0 262 -148 450z" />
<glyph horiz-adv-x="258" d="M198 -93h-118v900h118v-31h-84v-838h84v-31z" />
<glyph horiz-adv-x="258" d="M178 -93h-118v31h84v838h-84v31h118v-900z" />
<glyph horiz-adv-x="337" d="M137 366v-18q36 -14 36 -91v-215q0 -55 21.5 -79.5t72.5 -24.5h30v-31h-30q-63 0 -95.5 31.5t-32.5 104.5v204q0 51 -8.5 73t-37.5 22h-13v30h13q29 0 37.5 22t8.5 73v204q0 73 32.5 104.5t95.5 31.5h30v-31h-30q-51 0 -72.5 -24.5t-21.5 -79.5v-215q0 -77 -36 -91z" />
<glyph horiz-adv-x="337" d="M200 348v18q-36 14 -36 91v215q0 55 -21.5 79.5t-72.5 24.5h-30v31h30q63 0 95.5 -31.5t32.5 -104.5v-204q0 -51 8.5 -73t37.5 -22h13v-30h-13q-29 0 -37.5 -22t-8.5 -73v-204q0 -73 -32.5 -104.5t-95.5 -31.5h-30v31h30q51 0 72.5 24.5t21.5 79.5v215q0 77 36 91z" />
<glyph horiz-adv-x="484" d="M94 359v-18l166 -174h-42l-160 163v39l159 164h42zM260 359v-18l166 -174h-42l-160 163v39l159 164h42z" />
<glyph horiz-adv-x="484" d="M390 341v18l-166 174h42l160 -163v-39l-159 -164h-42zM224 341v18l-166 174h42l160 -163v-39l-159 -164h-42z" />
<glyph horiz-adv-x="318" d="M94 359v-18l166 -174h-42l-160 163v39l159 164h42z" />
<glyph horiz-adv-x="318" d="M224 341v18l-165 174h42l159 -164v-39l-160 -163h-42z" />
<glyph horiz-adv-x="371" d="M322 347h-273v31h273v-31z" />
<glyph horiz-adv-x="617" d="M568 347h-520v31h520v-31z" />
<glyph horiz-adv-x="877" d="M828 347h-780v31h780v-31z" />
<glyph horiz-adv-x="1445" d="M1396 347h-1348v31h1348v-31z" />
<glyph horiz-adv-x="378" d="M214 0h-85v250h-102v74h102v106h-102v74h102v152h85v-152h136v-74h-136v-106h136v-74h-136v-250z" />
<glyph horiz-adv-x="977" d="M668 41l25 -52q-117 -74 -264 -74q-173 0 -272.5 104.5t-99.5 276.5q0 216 137 359.5t357 143.5q158 0 264 -92.5t106 -248.5q0 -128 -65.5 -222t-170.5 -94q-73 0 -96 57h-18q-55 -57 -129 -57q-75 0 -118 47t-43 131q0 101 60.5 175.5t155.5 74.5q38 0 66.5 -15 t39.5 -34h18l8 35h71l-42 -254l-1 -10q-1 -10 -2.5 -22t-1.5 -19q0 -52 46 -52q58 0 108 69t50 183q0 131 -83.5 210.5t-234.5 79.5q-171 0 -294.5 -123t-123.5 -309q0 -68 17 -126.5t52.5 -106.5t98.5 -75.5t147 -27.5q121 0 232 68zM456 207q59 0 98 51.5t39 131.5 q0 115 -96 115q-59 0 -97.5 -56t-38.5 -126q0 -52 24 -84t71 -32z" />
</font>
</defs>
</svg>
