<?xml version="1.0" encoding="UTF-8" standalone="no"?>
<svg width="46px" height="46px" viewBox="0 0 46 46" version="1.1" xmlns="http://www.w3.org/2000/svg" xmlns:xlink="http://www.w3.org/1999/xlink">
    <!-- Generator: Sketch 39.1 (31720) - http://www.bohemiancoding.com/sketch -->
    <title>plus</title>
    <desc>Created with Sketch.</desc>
    <defs></defs>
    <g id="Page-1" stroke="none" stroke-width="1" fill="none" fill-rule="evenodd">
        <g id="plus">
            <path d="M7.0703,38.93 C15.8673,47.728 30.1313,47.729 38.9293,38.93 C47.7263,30.133 47.7263,15.868 38.9293,7.071 C30.1333,-1.726 15.8673,-1.725 7.0703,7.072 C-1.7287,15.87 -1.7267,30.133 7.0703,38.93" id="Fill-4" fill="#FFFFFF"></path>
            <path d="M7.0703,38.93 C15.8673,47.728 30.1313,47.729 38.9293,38.93 C47.7263,30.133 47.7263,15.868 38.9293,7.071 C30.1333,-1.726 15.8673,-1.725 7.0703,7.072 C-1.7287,15.87 -1.7267,30.133 7.0703,38.93 L7.0703,38.93 Z" id="Stroke-6" stroke="#0000FF" stroke-width="0.945"></path>
            <polygon id="Fill-7" fill="#0000FF" points="21.505 35.992 24.505 35.992 24.505 9.992 21.505 9.992"></polygon>
            <polygon id="Fill-8" fill="#0000FF" points="36.016 24.499 10.016 24.499 10.016 21.499 36.016 21.499"></polygon>
        </g>
    </g>
</svg>